Courier Primal Bold.ufo
<glyph name="exclam" format="2">
  <advance width="1228"/>
  <unicode hex="0021"/>
  <outline>
    <contour>
      <point x="739" y="1209" type="line" smooth="yes"/>
      <point x="762.5" y="1209.0" name="inserted"/>
      <point x="783.0" y="1184.0"/>
      <point x="780" y="1159" type="qcurve" smooth="yes"/>
      <point x="707" y="582" type="line" smooth="yes"/>
      <point x="702" y="544"/>
      <point x="653" y="504"/>
      <point x="614" y="504" type="qcurve" smooth="yes"/>
      <point x="575" y="504"/>
      <point x="526" y="544"/>
      <point x="521" y="582" type="qcurve" smooth="yes"/>
      <point x="448" y="1159" type="line" smooth="yes"/>
      <point x="445.0" y="1184.0" name="inserted"/>
      <point x="465.5" y="1209.0"/>
      <point x="489" y="1209" type="qcurve" smooth="yes"/>
    </contour>
    <contour>
      <point x="425" y="167" type="qcurve" smooth="yes"/>
      <point x="425" y="206"/>
      <point x="455" y="276"/>
      <point x="480.5" y="301.5" type="qcurve" smooth="yes" name="inserted"/>
      <point x="506" y="327"/>
      <point x="575" y="357"/>
      <point x="614" y="357" type="qcurve" smooth="yes"/>
      <point x="653" y="357"/>
      <point x="722" y="327"/>
      <point x="747.5" y="301.5" type="qcurve" smooth="yes" name="inserted"/>
      <point x="773" y="276"/>
      <point x="803" y="206"/>
      <point x="803" y="167" type="qcurve" smooth="yes"/>
      <point x="803" y="128"/>
      <point x="773" y="59"/>
      <point x="747.5" y="33.5" type="qcurve" smooth="yes" name="inserted"/>
      <point x="722" y="8"/>
      <point x="653" y="-22"/>
      <point x="614" y="-22" type="qcurve" smooth="yes"/>
      <point x="575" y="-22"/>
      <point x="506" y="8"/>
      <point x="480.5" y="33.5" type="qcurve" smooth="yes" name="inserted"/>
      <point x="455" y="59"/>
      <point x="425" y="128"/>
    </contour>
  </outline>
</glyph>
<glyph name="quotesingle" format="2">
  <advance width="1228"/>
  <unicode hex="0027"/>
  <outline>
    <contour>
      <point x="739" y="1209" type="line" smooth="yes"/>
      <point x="762" y="1209"/>
      <point x="784" y="1185"/>
      <point x="780" y="1159" type="qcurve" smooth="yes"/>
      <point x="707" y="679" type="line" smooth="yes"/>
      <point x="702" y="648"/>
      <point x="663" y="611"/>
      <point x="614" y="611" type="qcurve" smooth="yes"/>
      <point x="565" y="611"/>
      <point x="526" y="648"/>
      <point x="521" y="679" type="qcurve" smooth="yes"/>
      <point x="448" y="1159" type="line" smooth="yes"/>
      <point x="444" y="1185"/>
      <point x="466" y="1209"/>
      <point x="489" y="1209" type="qcurve" smooth="yes"/>
    </contour>
  </outline>
</glyph>
<glyph name="three" format="2">
  <advance width="1228"/>
  <unicode hex="0033"/>
  <outline>
    <contour>
      <point x="221" y="55" type="qcurve" smooth="yes"/>
      <point x="192" y="70"/>
      <point x="177" y="133"/>
      <point x="200" y="191" type="qcurve" smooth="yes"/>
      <point x="223" y="249"/>
      <point x="273" y="281"/>
      <point x="296" y="270" type="qcurve" smooth="yes"/>
      <point x="360" y="240"/>
      <point x="498" y="205"/>
      <point x="564" y="205" type="qcurve" smooth="yes"/>
      <point x="672" y="205"/>
      <point x="778" y="285"/>
      <point x="778" y="358" type="qcurve" smooth="yes"/>
      <point x="778" y="430"/>
      <point x="692" y="503"/>
      <point x="608" y="503" type="qcurve" smooth="yes"/>
      <point x="505" y="503" type="line" smooth="yes"/>
      <point x="488" y="503"/>
      <point x="464" y="513"/>
      <point x="456.5" y="525.0" type="qcurve" smooth="yes" name="inserted"/>
      <point x="449" y="537"/>
      <point x="442" y="578"/>
      <point x="442" y="610" type="qcurve" smooth="yes"/>
      <point x="442" y="642"/>
      <point x="449" y="684"/>
      <point x="456.5" y="696.0" type="qcurve" smooth="yes" name="inserted"/>
      <point x="464" y="708"/>
      <point x="488" y="718"/>
      <point x="505" y="718" type="qcurve" smooth="yes"/>
      <point x="581" y="718" type="line" smooth="yes"/>
      <point x="670" y="718"/>
      <point x="757" y="783"/>
      <point x="757" y="854" type="qcurve" smooth="yes"/>
      <point x="757.0" y="923.0" name="inserted"/>
      <point x="674.0" y="992.0"/>
      <point x="591" y="992" type="qcurve" smooth="yes"/>
      <point x="546" y="992"/>
      <point x="471" y="979"/>
      <point x="438" y="969" type="qcurve"/>
      <point x="438" y="890" type="line" smooth="yes"/>
      <point x="438" y="873"/>
      <point x="428" y="849"/>
      <point x="416.0" y="841.5" type="qcurve" smooth="yes" name="inserted"/>
      <point x="404" y="834"/>
      <point x="362" y="827"/>
      <point x="330" y="827" type="qcurve" smooth="yes"/>
      <point x="266" y="827"/>
      <point x="208" y="856"/>
      <point x="208" y="890" type="qcurve" smooth="yes"/>
      <point x="208" y="1077" type="line" smooth="yes"/>
      <point x="208.0" y="1099.5" name="inserted"/>
      <point x="232.5" y="1131.5"/>
      <point x="257" y="1141" type="qcurve" smooth="yes"/>
      <point x="335" y="1173"/>
      <point x="505" y="1209"/>
      <point x="590" y="1209" type="qcurve" smooth="yes"/>
      <point x="791" y="1209"/>
      <point x="1011" y="1035"/>
      <point x="1011" y="869" type="qcurve" smooth="yes"/>
      <point x="1011" y="778"/>
      <point x="936" y="659"/>
      <point x="870" y="624" type="qcurve"/>
      <point x="951" y="587"/>
      <point x="1046" y="455"/>
      <point x="1046" y="356" type="qcurve" smooth="yes"/>
      <point x="1046" y="261"/>
      <point x="979" y="119"/>
      <point x="916.5" y="72.0" type="qcurve" smooth="yes" name="inserted"/>
      <point x="854" y="25"/>
      <point x="676" y="-22"/>
      <point x="564" y="-22" type="qcurve" smooth="yes"/>
      <point x="471" y="-22"/>
      <point x="296" y="15"/>
    </contour>
  </outline>
</glyph>
<glyph name="seven" format="2">
  <advance width="1228"/>
  <unicode hex="0037"/>
  <outline>
    <contour>
      <point x="654" y="24" type="line" smooth="yes"/>
      <point x="647" y="7"/>
      <point x="617" y="-13"/>
      <point x="597.0" y="-17.5" type="qcurve" smooth="yes" name="inserted"/>
      <point x="577" y="-22"/>
      <point x="532" y="-21"/>
      <point x="510" y="-16" type="qcurve" smooth="yes"/>
      <point x="486" y="-10"/>
      <point x="442" y="11"/>
      <point x="428.0" y="25.5" type="qcurve" smooth="yes" name="inserted"/>
      <point x="414" y="40"/>
      <point x="403" y="76"/>
      <point x="412" y="97" type="qcurve" smooth="yes"/>
      <point x="784" y="972" type="line"/>
      <point x="418" y="972" type="line"/>
      <point x="418" y="760" type="line" smooth="yes"/>
      <point x="418" y="743"/>
      <point x="408" y="719"/>
      <point x="396.0" y="711.5" type="qcurve" smooth="yes" name="inserted"/>
      <point x="384" y="704"/>
      <point x="342" y="697"/>
      <point x="310" y="697" type="qcurve" smooth="yes"/>
      <point x="246" y="697"/>
      <point x="188" y="726"/>
      <point x="188" y="760" type="qcurve" smooth="yes"/>
      <point x="188" y="1122" type="line" smooth="yes"/>
      <point x="188" y="1157"/>
      <point x="218" y="1187"/>
      <point x="253" y="1187" type="qcurve" smooth="yes"/>
      <point x="1017" y="1187" type="line" smooth="yes"/>
      <point x="1034" y="1187"/>
      <point x="1058" y="1179"/>
      <point x="1065.5" y="1167.5" type="qcurve" smooth="yes" name="inserted"/>
      <point x="1073" y="1156"/>
      <point x="1080" y="1116"/>
      <point x="1080" y="1084" type="qcurve" smooth="yes"/>
      <point x="1080.0" y="1059.0" name="inserted"/>
      <point x="1075.5" y="1023.0"/>
      <point x="1071" y="1012" type="qcurve" smooth="yes"/>
    </contour>
  </outline>
</glyph>
<glyph name="colon" format="2">
  <advance width="1228"/>
  <unicode hex="003A"/>
  <outline>
    <contour>
      <point x="419" y="751" type="qcurve" smooth="yes"/>
      <point x="419" y="791"/>
      <point x="450" y="863"/>
      <point x="476.0" y="889.0" type="qcurve" smooth="yes" name="inserted"/>
      <point x="502" y="915"/>
      <point x="573" y="946"/>
      <point x="614" y="946" type="qcurve" smooth="yes"/>
      <point x="654" y="946"/>
      <point x="726" y="915"/>
      <point x="752.0" y="889.0" type="qcurve" smooth="yes" name="inserted"/>
      <point x="778" y="863"/>
      <point x="809" y="791"/>
      <point x="809" y="751" type="qcurve" smooth="yes"/>
      <point x="809" y="710"/>
      <point x="778" y="639"/>
      <point x="752.0" y="613.0" type="qcurve" smooth="yes" name="inserted"/>
      <point x="726" y="587"/>
      <point x="654" y="556"/>
      <point x="614" y="556" type="qcurve" smooth="yes"/>
      <point x="573" y="556"/>
      <point x="502" y="587"/>
      <point x="476.0" y="613.0" type="qcurve" smooth="yes" name="inserted"/>
      <point x="450" y="639"/>
      <point x="419" y="710"/>
    </contour>
    <contour>
      <point x="419" y="173" type="qcurve" smooth="yes"/>
      <point x="419" y="213"/>
      <point x="450" y="285"/>
      <point x="476.0" y="311.0" type="qcurve" smooth="yes" name="inserted"/>
      <point x="502" y="337"/>
      <point x="573" y="368"/>
      <point x="614" y="368" type="qcurve" smooth="yes"/>
      <point x="654" y="368"/>
      <point x="726" y="337"/>
      <point x="752.0" y="311.0" type="qcurve" smooth="yes" name="inserted"/>
      <point x="778" y="285"/>
      <point x="809" y="213"/>
      <point x="809" y="173" type="qcurve" smooth="yes"/>
      <point x="809" y="132"/>
      <point x="778" y="61"/>
      <point x="752.0" y="35.0" type="qcurve" smooth="yes" name="inserted"/>
      <point x="726" y="9"/>
      <point x="654" y="-22"/>
      <point x="614" y="-22" type="qcurve" smooth="yes"/>
      <point x="573" y="-22"/>
      <point x="502" y="9"/>
      <point x="476.0" y="35.0" type="qcurve" smooth="yes" name="inserted"/>
      <point x="450" y="61"/>
      <point x="419" y="132"/>
    </contour>
  </outline>
</glyph>
<glyph name="less" format="2">
  <advance width="1228"/>
  <unicode hex="003C"/>
  <outline>
    <contour>
      <point x="1046" y="291" type="line" smooth="yes"/>
      <point x="1078" y="275"/>
      <point x="1086" y="215"/>
      <point x="1056" y="155" type="qcurve" smooth="yes"/>
      <point x="1041" y="125"/>
      <point x="1014" y="90"/>
      <point x="1001.0" y="83.0" type="qcurve" smooth="yes" name="inserted"/>
      <point x="988" y="76"/>
      <point x="961" y="79"/>
      <point x="946" y="87" type="qcurve" smooth="yes"/>
      <point x="166" y="489" type="line" smooth="yes"/>
      <point x="142" y="501"/>
      <point x="120" y="540"/>
      <point x="120" y="583" type="qcurve" smooth="yes"/>
      <point x="120" y="626"/>
      <point x="142" y="665"/>
      <point x="166" y="677" type="qcurve" smooth="yes"/>
      <point x="946" y="1079" type="line" smooth="yes"/>
      <point x="961" y="1087"/>
      <point x="988" y="1090"/>
      <point x="1001.0" y="1083.0" type="qcurve" smooth="yes" name="inserted"/>
      <point x="1014" y="1076"/>
      <point x="1041" y="1041"/>
      <point x="1056" y="1011" type="qcurve" smooth="yes"/>
      <point x="1086" y="951"/>
      <point x="1078" y="891"/>
      <point x="1046" y="875" type="qcurve" smooth="yes"/>
      <point x="461" y="583" type="line"/>
    </contour>
  </outline>
</glyph>
<glyph name="at" format="2">
  <advance width="1228"/>
  <unicode hex="0040"/>
  <outline>
    <contour>
      <point x="704" y="261" type="qcurve"/>
      <point x="669" y="196"/>
      <point x="573" y="117"/>
      <point x="507" y="117" type="qcurve" smooth="yes"/>
      <point x="466" y="117"/>
      <point x="398" y="148"/>
      <point x="373.0" y="178.5" type="qcurve" smooth="yes" name="inserted"/>
      <point x="348" y="209"/>
      <point x="321" y="299"/>
      <point x="321" y="357" type="qcurve" smooth="yes"/>
      <point x="321" y="435"/>
      <point x="372" y="592"/>
      <point x="415.0" y="656.0" type="qcurve" smooth="yes" name="inserted"/>
      <point x="458" y="720"/>
      <point x="573" y="800"/>
      <point x="638" y="800" type="qcurve" smooth="yes"/>
      <point x="691" y="800"/>
      <point x="750" y="735"/>
      <point x="766" y="685" type="qcurve"/>
      <point x="799" y="754" type="line"/>
      <point x="804" y="762"/>
      <point x="845" y="763"/>
      <point x="868" y="757" type="qcurve" smooth="yes"/>
      <point x="892" y="750"/>
      <point x="924" y="730"/>
      <point x="920" y="716" type="qcurve"/>
      <point x="848" y="404" type="line" smooth="yes"/>
      <point x="840" y="372"/>
      <point x="841" y="324"/>
      <point x="848.5" y="308.5" type="qcurve" smooth="yes" name="inserted"/>
      <point x="856" y="293"/>
      <point x="881" y="278"/>
      <point x="897" y="278" type="qcurve" smooth="yes"/>
      <point x="925" y="278"/>
      <point x="974" y="313"/>
      <point x="992.0" y="346.0" type="qcurve" smooth="yes" name="inserted"/>
      <point x="1010" y="379"/>
      <point x="1030" y="473"/>
      <point x="1030" y="531" type="qcurve" smooth="yes"/>
      <point x="1030" y="619"/>
      <point x="979" y="765"/>
      <point x="930.5" y="816.5" type="qcurve" smooth="yes" name="inserted"/>
      <point x="882" y="868"/>
      <point x="743" y="925"/>
      <point x="655" y="925" type="qcurve" smooth="yes"/>
      <point x="553" y="925"/>
      <point x="384" y="841"/>
      <point x="323.5" y="768.0" type="qcurve" smooth="yes" name="inserted"/>
      <point x="263" y="695"/>
      <point x="196" y="500"/>
      <point x="196" y="389" type="qcurve" smooth="yes"/>
      <point x="196" y="302"/>
      <point x="244" y="159"/>
      <point x="290.5" y="108.0" type="qcurve" smooth="yes" name="inserted"/>
      <point x="337" y="57"/>
      <point x="472" y="0"/>
      <point x="560" y="0" type="qcurve" smooth="yes"/>
      <point x="640" y="0"/>
      <point x="767" y="23"/>
      <point x="818" y="40" type="qcurve" smooth="yes"/>
      <point x="835" y="46"/>
      <point x="864" y="26"/>
      <point x="875" y="-17" type="qcurve" smooth="yes"/>
      <point x="886" y="-61"/>
      <point x="874" y="-94"/>
      <point x="858" y="-101" type="qcurve" smooth="yes"/>
      <point x="832" y="-113"/>
      <point x="764" y="-132"/>
      <point x="725.0" y="-138.5" type="qcurve" smooth="yes" name="inserted"/>
      <point x="686" y="-145"/>
      <point x="603" y="-153"/>
      <point x="562" y="-153" type="qcurve" smooth="yes"/>
      <point x="438" y="-153"/>
      <point x="242" y="-77"/>
      <point x="173.5" y="-6.5" type="qcurve" smooth="yes" name="inserted"/>
      <point x="105" y="64"/>
      <point x="33" y="265"/>
      <point x="33" y="389" type="qcurve" smooth="yes"/>
      <point x="33" y="486"/>
      <point x="76" y="664"/>
      <point x="115.5" y="740.5" type="qcurve" smooth="yes" name="inserted"/>
      <point x="155" y="817"/>
      <point x="267" y="941"/>
      <point x="337.0" y="985.5" type="qcurve" smooth="yes" name="inserted"/>
      <point x="407" y="1030"/>
      <point x="570" y="1078"/>
      <point x="660" y="1078" type="qcurve" smooth="yes"/>
      <point x="780" y="1078"/>
      <point x="975" y="996"/>
      <point x="1043.5" y="923.5" type="qcurve" smooth="yes" name="inserted"/>
      <point x="1112" y="851"/>
      <point x="1187" y="650"/>
      <point x="1187" y="531" type="qcurve" smooth="yes"/>
      <point x="1187" y="433"/>
      <point x="1140" y="281"/>
      <point x="1099.0" y="228.5" type="qcurve" smooth="yes" name="inserted"/>
      <point x="1058" y="176"/>
      <point x="946" y="122"/>
      <point x="881" y="122" type="qcurve" smooth="yes"/>
      <point x="809" y="122"/>
      <point x="721" y="200"/>
    </contour>
    <contour>
      <point x="496" y="379" type="qcurve" smooth="yes"/>
      <point x="496" y="330"/>
      <point x="533" y="281"/>
      <point x="562" y="281" type="qcurve" smooth="yes"/>
      <point x="589" y="281"/>
      <point x="642" y="337"/>
      <point x="663.0" y="377.0" type="qcurve" smooth="yes" name="inserted"/>
      <point x="684" y="417"/>
      <point x="710" y="507"/>
      <point x="710" y="541" type="qcurve" smooth="yes"/>
      <point x="710" y="588"/>
      <point x="679" y="643"/>
      <point x="644" y="643" type="qcurve" smooth="yes"/>
      <point x="620" y="643"/>
      <point x="568" y="597"/>
      <point x="546.5" y="559.5" type="qcurve" smooth="yes" name="inserted"/>
      <point x="525" y="522"/>
      <point x="496" y="427"/>
    </contour>
  </outline>
</glyph>
<glyph name="B" format="2">
  <advance width="1228"/>
  <unicode hex="0042"/>
  <outline>
    <contour>
      <point x="240" y="982" type="line"/>
      <point x="133" y="982" type="line" smooth="yes"/>
      <point x="116" y="982"/>
      <point x="92" y="990"/>
      <point x="84.5" y="1001.0" type="qcurve" smooth="yes" name="inserted"/>
      <point x="77" y="1012"/>
      <point x="70" y="1052"/>
      <point x="70" y="1084" type="qcurve" smooth="yes"/>
      <point x="70" y="1116"/>
      <point x="77" y="1156"/>
      <point x="84.5" y="1167.5" type="qcurve" smooth="yes" name="inserted"/>
      <point x="92" y="1179"/>
      <point x="116" y="1187"/>
      <point x="133" y="1187" type="qcurve" smooth="yes"/>
      <point x="654" y="1187" type="line" smooth="yes"/>
      <point x="762" y="1187"/>
      <point x="917" y="1141"/>
      <point x="967.0" y="1098.5" type="qcurve" smooth="yes" name="inserted"/>
      <point x="1017" y="1056"/>
      <point x="1064" y="937"/>
      <point x="1064" y="864" type="qcurve" smooth="yes"/>
      <point x="1064" y="779"/>
      <point x="980" y="664"/>
      <point x="910" y="630" type="qcurve"/>
      <point x="1016" y="601"/>
      <point x="1139" y="463"/>
      <point x="1139" y="344" type="qcurve" smooth="yes"/>
      <point x="1139" y="258"/>
      <point x="1082" y="130"/>
      <point x="1027.0" y="86.5" type="qcurve" smooth="yes" name="inserted"/>
      <point x="972" y="43"/>
      <point x="813" y="0"/>
      <point x="710" y="0" type="qcurve" smooth="yes"/>
      <point x="133" y="0" type="line" smooth="yes"/>
      <point x="116" y="0"/>
      <point x="92" y="8"/>
      <point x="84.5" y="19.0" type="qcurve" smooth="yes" name="inserted"/>
      <point x="77" y="30"/>
      <point x="70" y="70"/>
      <point x="70" y="102" type="qcurve" smooth="yes"/>
      <point x="70" y="134"/>
      <point x="77" y="174"/>
      <point x="84.5" y="185.5" type="qcurve" smooth="yes" name="inserted"/>
      <point x="92" y="197"/>
      <point x="116" y="205"/>
      <point x="133" y="205" type="qcurve" smooth="yes"/>
      <point x="240" y="205" type="line"/>
    </contour>
    <contour>
      <point x="682" y="215" type="line" smooth="yes"/>
      <point x="782" y="215"/>
      <point x="876" y="285"/>
      <point x="876" y="354" type="qcurve" smooth="yes"/>
      <point x="876" y="429"/>
      <point x="781" y="499"/>
      <point x="682" y="499" type="qcurve" smooth="yes"/>
      <point x="490" y="499" type="line"/>
      <point x="490" y="215" type="line"/>
    </contour>
    <contour>
      <point x="632" y="714" type="line" smooth="yes"/>
      <point x="723" y="714"/>
      <point x="810" y="777"/>
      <point x="810" y="844" type="qcurve" smooth="yes"/>
      <point x="810" y="912"/>
      <point x="725" y="972"/>
      <point x="632" y="972" type="qcurve" smooth="yes"/>
      <point x="490" y="972" type="line"/>
      <point x="490" y="714" type="line"/>
    </contour>
  </outline>
</glyph>
<glyph name="F" format="2">
  <advance width="1228"/>
  <unicode hex="0046"/>
  <outline>
    <contour>
      <point x="250" y="982" type="line"/>
      <point x="123" y="982" type="line" smooth="yes"/>
      <point x="106" y="982"/>
      <point x="82" y="990"/>
      <point x="74.5" y="1001.0" type="qcurve" smooth="yes" name="inserted"/>
      <point x="67" y="1012"/>
      <point x="60" y="1052"/>
      <point x="60" y="1084" type="qcurve" smooth="yes"/>
      <point x="60" y="1116"/>
      <point x="67" y="1156"/>
      <point x="74.5" y="1167.5" type="qcurve" smooth="yes" name="inserted"/>
      <point x="82" y="1179"/>
      <point x="106" y="1187"/>
      <point x="123" y="1187" type="qcurve" smooth="yes"/>
      <point x="1055" y="1187" type="line" smooth="yes"/>
      <point x="1090" y="1187"/>
      <point x="1120" y="1157"/>
      <point x="1120" y="1122" type="qcurve" smooth="yes"/>
      <point x="1120" y="820" type="line" smooth="yes"/>
      <point x="1120" y="786"/>
      <point x="1062" y="757"/>
      <point x="998" y="757" type="qcurve" smooth="yes"/>
      <point x="966" y="757"/>
      <point x="924" y="764"/>
      <point x="912.0" y="771.5" type="qcurve" smooth="yes" name="inserted"/>
      <point x="900" y="779"/>
      <point x="890" y="803"/>
      <point x="890" y="820" type="qcurve" smooth="yes"/>
      <point x="890" y="972" type="line"/>
      <point x="500" y="972" type="line"/>
      <point x="500" y="667" type="line"/>
      <point x="804" y="667" type="line" smooth="yes"/>
      <point x="821" y="667"/>
      <point x="845" y="657"/>
      <point x="852.5" y="645.0" type="qcurve" smooth="yes" name="inserted"/>
      <point x="860" y="633"/>
      <point x="867" y="591"/>
      <point x="867" y="559" type="qcurve" smooth="yes"/>
      <point x="867" y="527"/>
      <point x="860" y="486"/>
      <point x="852.5" y="474.0" type="qcurve" smooth="yes" name="inserted"/>
      <point x="845" y="462"/>
      <point x="821" y="452"/>
      <point x="804" y="452" type="qcurve" smooth="yes"/>
      <point x="500" y="452" type="line"/>
      <point x="500" y="205" type="line"/>
      <point x="717" y="205" type="line" smooth="yes"/>
      <point x="734" y="205"/>
      <point x="758" y="197"/>
      <point x="765.5" y="185.5" type="qcurve" smooth="yes" name="inserted"/>
      <point x="773" y="174"/>
      <point x="780" y="134"/>
      <point x="780" y="102" type="qcurve" smooth="yes"/>
      <point x="780" y="70"/>
      <point x="773" y="30"/>
      <point x="765.5" y="19.0" type="qcurve" smooth="yes" name="inserted"/>
      <point x="758" y="8"/>
      <point x="734" y="0"/>
      <point x="717" y="0" type="qcurve" smooth="yes"/>
      <point x="123" y="0" type="line" smooth="yes"/>
      <point x="106" y="0"/>
      <point x="82" y="8"/>
      <point x="74.5" y="19.0" type="qcurve" smooth="yes" name="inserted"/>
      <point x="67" y="30"/>
      <point x="60" y="70"/>
      <point x="60" y="102" type="qcurve" smooth="yes"/>
      <point x="60" y="134"/>
      <point x="67" y="174"/>
      <point x="74.5" y="185.5" type="qcurve" smooth="yes" name="inserted"/>
      <point x="82" y="197"/>
      <point x="106" y="205"/>
      <point x="123" y="205" type="qcurve" smooth="yes"/>
      <point x="250" y="205" type="line"/>
    </contour>
  </outline>
</glyph>
<glyph name="J" format="2">
  <advance width="1228"/>
  <unicode hex="004A"/>
  <outline>
    <contour>
      <point x="373" y="982" type="line" smooth="yes"/>
      <point x="356" y="982"/>
      <point x="332" y="990"/>
      <point x="324.5" y="1001.0" type="qcurve" smooth="yes" name="inserted"/>
      <point x="317" y="1012"/>
      <point x="310" y="1052"/>
      <point x="310" y="1084" type="qcurve" smooth="yes"/>
      <point x="310" y="1116"/>
      <point x="317" y="1156"/>
      <point x="324.5" y="1167.5" type="qcurve" smooth="yes" name="inserted"/>
      <point x="332" y="1179"/>
      <point x="356" y="1187"/>
      <point x="373" y="1187" type="qcurve" smooth="yes"/>
      <point x="1115" y="1187" type="line" smooth="yes"/>
      <point x="1132" y="1187"/>
      <point x="1156" y="1179"/>
      <point x="1163.5" y="1167.5" type="qcurve" smooth="yes" name="inserted"/>
      <point x="1171" y="1156"/>
      <point x="1178" y="1116"/>
      <point x="1178" y="1084" type="qcurve" smooth="yes"/>
      <point x="1178" y="1052"/>
      <point x="1171" y="1012"/>
      <point x="1163.5" y="1001.0" type="qcurve" smooth="yes" name="inserted"/>
      <point x="1156" y="990"/>
      <point x="1132" y="982"/>
      <point x="1115" y="982" type="qcurve" smooth="yes"/>
      <point x="929" y="982" type="line"/>
      <point x="929" y="363" type="line" smooth="yes"/>
      <point x="929" y="169"/>
      <point x="712" y="-22"/>
      <point x="504" y="-22" type="qcurve" smooth="yes"/>
      <point x="386.5" y="-22.0" name="inserted"/>
      <point x="192.0" y="51.5"/>
      <point x="115" y="125" type="qcurve" smooth="yes"/>
      <point x="107.0" y="133.0" name="inserted"/>
      <point x="99.0" y="158.0"/>
      <point x="99" y="175" type="qcurve" smooth="yes"/>
      <point x="99" y="499" type="line" smooth="yes"/>
      <point x="99" y="533"/>
      <point x="159" y="562"/>
      <point x="231" y="562" type="qcurve" smooth="yes"/>
      <point x="267" y="562"/>
      <point x="312" y="555"/>
      <point x="325.5" y="547.5" type="qcurve" smooth="yes" name="inserted"/>
      <point x="339" y="540"/>
      <point x="349" y="516"/>
      <point x="349" y="499" type="qcurve" smooth="yes"/>
      <point x="349" y="239" type="line"/>
      <point x="383.5" y="222.0" name="inserted"/>
      <point x="466.5" y="205.0"/>
      <point x="515" y="205" type="qcurve" smooth="yes"/>
      <point x="596" y="205"/>
      <point x="679" y="290"/>
      <point x="679" y="383" type="qcurve" smooth="yes"/>
      <point x="679" y="982" type="line"/>
    </contour>
  </outline>
</glyph>
<glyph name="N" format="2">
  <advance width="1228"/>
  <unicode hex="004E"/>
  <outline>
    <contour>
      <point x="180" y="982" type="line"/>
      <point x="113" y="982" type="line" smooth="yes"/>
      <point x="96" y="982"/>
      <point x="72" y="990"/>
      <point x="64.5" y="1001.0" type="qcurve" smooth="yes" name="inserted"/>
      <point x="57" y="1012"/>
      <point x="50" y="1052"/>
      <point x="50" y="1084" type="qcurve" smooth="yes"/>
      <point x="50" y="1116"/>
      <point x="57" y="1156"/>
      <point x="64.5" y="1167.5" type="qcurve" smooth="yes" name="inserted"/>
      <point x="72" y="1179"/>
      <point x="96" y="1187"/>
      <point x="113" y="1187" type="qcurve" smooth="yes"/>
      <point x="377" y="1187" type="line" smooth="yes"/>
      <point x="396" y="1187"/>
      <point x="424" y="1175"/>
      <point x="433" y="1160" type="qcurve" smooth="yes"/>
      <point x="848" y="473" type="line"/>
      <point x="848" y="982" type="line"/>
      <point x="760" y="982" type="line" smooth="yes"/>
      <point x="743" y="982"/>
      <point x="719" y="990"/>
      <point x="711.5" y="1001.0" type="qcurve" smooth="yes" name="inserted"/>
      <point x="704" y="1012"/>
      <point x="697" y="1052"/>
      <point x="697" y="1084" type="qcurve" smooth="yes"/>
      <point x="697" y="1116"/>
      <point x="704" y="1156"/>
      <point x="711.5" y="1167.5" type="qcurve" smooth="yes" name="inserted"/>
      <point x="719" y="1179"/>
      <point x="743" y="1187"/>
      <point x="760" y="1187" type="qcurve" smooth="yes"/>
      <point x="1135" y="1187" type="line" smooth="yes"/>
      <point x="1152" y="1187"/>
      <point x="1176" y="1179"/>
      <point x="1183.5" y="1167.5" type="qcurve" smooth="yes" name="inserted"/>
      <point x="1191" y="1156"/>
      <point x="1198" y="1116"/>
      <point x="1198" y="1084" type="qcurve" smooth="yes"/>
      <point x="1198" y="1052"/>
      <point x="1191" y="1012"/>
      <point x="1183.5" y="1001.0" type="qcurve" smooth="yes" name="inserted"/>
      <point x="1176" y="990"/>
      <point x="1152" y="982"/>
      <point x="1135" y="982" type="qcurve" smooth="yes"/>
      <point x="1078" y="982" type="line"/>
      <point x="1078" y="44" type="line" smooth="yes"/>
      <point x="1078" y="12"/>
      <point x="1031" y="-22"/>
      <point x="968" y="-22" type="qcurve" smooth="yes"/>
      <point x="944" y="-22"/>
      <point x="910" y="-15"/>
      <point x="897.5" y="-8.5" type="qcurve" smooth="yes" name="inserted"/>
      <point x="885" y="-2"/>
      <point x="868" y="18"/>
      <point x="860" y="31" type="qcurve" smooth="yes"/>
      <point x="410" y="776" type="line"/>
      <point x="410" y="205" type="line"/>
      <point x="517" y="205" type="line" smooth="yes"/>
      <point x="534" y="205"/>
      <point x="558" y="197"/>
      <point x="565.5" y="185.5" type="qcurve" smooth="yes" name="inserted"/>
      <point x="573" y="174"/>
      <point x="580" y="134"/>
      <point x="580" y="102" type="qcurve" smooth="yes"/>
      <point x="580" y="70"/>
      <point x="573" y="30"/>
      <point x="565.5" y="19.0" type="qcurve" smooth="yes" name="inserted"/>
      <point x="558" y="8"/>
      <point x="534" y="0"/>
      <point x="517" y="0" type="qcurve" smooth="yes"/>
      <point x="113" y="0" type="line" smooth="yes"/>
      <point x="96" y="0"/>
      <point x="72" y="8"/>
      <point x="64.5" y="19.0" type="qcurve" smooth="yes" name="inserted"/>
      <point x="57" y="30"/>
      <point x="50" y="70"/>
      <point x="50" y="102" type="qcurve" smooth="yes"/>
      <point x="50" y="134"/>
      <point x="57" y="174"/>
      <point x="64.5" y="185.5" type="qcurve" smooth="yes" name="inserted"/>
      <point x="72" y="197"/>
      <point x="96" y="205"/>
      <point x="113" y="205" type="qcurve" smooth="yes"/>
      <point x="180" y="205" type="line"/>
    </contour>
  </outline>
</glyph>
<glyph name="P" format="2">
  <advance width="1228"/>
  <unicode hex="0050"/>
  <outline>
    <contour>
      <point x="270" y="982" type="line"/>
      <point x="123" y="982" type="line" smooth="yes"/>
      <point x="106" y="982"/>
      <point x="82" y="990"/>
      <point x="74.5" y="1001.0" type="qcurve" smooth="yes" name="inserted"/>
      <point x="67" y="1012"/>
      <point x="60" y="1052"/>
      <point x="60" y="1084" type="qcurve" smooth="yes"/>
      <point x="60" y="1116"/>
      <point x="67" y="1156"/>
      <point x="74.5" y="1167.5" type="qcurve" smooth="yes" name="inserted"/>
      <point x="82" y="1179"/>
      <point x="106" y="1187"/>
      <point x="123" y="1187" type="qcurve" smooth="yes"/>
      <point x="670" y="1187" type="line" smooth="yes"/>
      <point x="902" y="1187"/>
      <point x="1137" y="978"/>
      <point x="1137" y="785" type="qcurve" smooth="yes"/>
      <point x="1137" y="592"/>
      <point x="902" y="382"/>
      <point x="670" y="382" type="qcurve" smooth="yes"/>
      <point x="520" y="382" type="line"/>
      <point x="520" y="205" type="line"/>
      <point x="737" y="205" type="line" smooth="yes"/>
      <point x="754" y="205"/>
      <point x="778" y="197"/>
      <point x="785.5" y="185.5" type="qcurve" smooth="yes" name="inserted"/>
      <point x="793" y="174"/>
      <point x="800" y="134"/>
      <point x="800" y="102" type="qcurve" smooth="yes"/>
      <point x="800" y="70"/>
      <point x="793" y="30"/>
      <point x="785.5" y="19.0" type="qcurve" smooth="yes" name="inserted"/>
      <point x="778" y="8"/>
      <point x="754" y="0"/>
      <point x="737" y="0" type="qcurve" smooth="yes"/>
      <point x="123" y="0" type="line" smooth="yes"/>
      <point x="106" y="0"/>
      <point x="82" y="8"/>
      <point x="74.5" y="19.0" type="qcurve" smooth="yes" name="inserted"/>
      <point x="67" y="30"/>
      <point x="60" y="70"/>
      <point x="60" y="102" type="qcurve" smooth="yes"/>
      <point x="60" y="134"/>
      <point x="67" y="174"/>
      <point x="74.5" y="185.5" type="qcurve" smooth="yes" name="inserted"/>
      <point x="82" y="197"/>
      <point x="106" y="205"/>
      <point x="123" y="205" type="qcurve" smooth="yes"/>
      <point x="270" y="205" type="line"/>
    </contour>
    <contour>
      <point x="639" y="597" type="line" smooth="yes"/>
      <point x="757" y="597"/>
      <point x="879" y="688"/>
      <point x="879" y="785" type="qcurve" smooth="yes"/>
      <point x="879" y="882"/>
      <point x="757" y="972"/>
      <point x="639" y="972" type="qcurve" smooth="yes"/>
      <point x="520" y="972" type="line"/>
      <point x="520" y="597" type="line"/>
    </contour>
  </outline>
</glyph>
<glyph name="W" format="2">
  <advance width="1228"/>
  <unicode hex="0057"/>
  <outline>
    <contour>
      <point x="437" y="1187" type="line" smooth="yes"/>
      <point x="454" y="1187"/>
      <point x="478" y="1179"/>
      <point x="485.5" y="1167.5" type="qcurve" smooth="yes" name="inserted"/>
      <point x="493" y="1156"/>
      <point x="500" y="1116"/>
      <point x="500" y="1084" type="qcurve" smooth="yes"/>
      <point x="500" y="1052"/>
      <point x="493" y="1012"/>
      <point x="485.5" y="1001.0" type="qcurve" smooth="yes" name="inserted"/>
      <point x="478" y="990"/>
      <point x="454" y="982"/>
      <point x="437" y="982" type="qcurve" smooth="yes"/>
      <point x="320" y="982" type="line"/>
      <point x="373" y="398" type="line"/>
      <point x="519" y="826" type="line" smooth="yes"/>
      <point x="525" y="846"/>
      <point x="562" y="873"/>
      <point x="613" y="873" type="qcurve" smooth="yes"/>
      <point x="665" y="873"/>
      <point x="707" y="853"/>
      <point x="713" y="833" type="qcurve" smooth="yes"/>
      <point x="860" y="398" type="line"/>
      <point x="914" y="982" type="line"/>
      <point x="811" y="982" type="line" smooth="yes"/>
      <point x="794" y="982"/>
      <point x="770" y="990"/>
      <point x="762.5" y="1001.0" type="qcurve" smooth="yes" name="inserted"/>
      <point x="755" y="1012"/>
      <point x="748" y="1052"/>
      <point x="748" y="1084" type="qcurve" smooth="yes"/>
      <point x="748" y="1116"/>
      <point x="755" y="1156"/>
      <point x="762.5" y="1167.5" type="qcurve" smooth="yes" name="inserted"/>
      <point x="770" y="1179"/>
      <point x="794" y="1187"/>
      <point x="811" y="1187" type="qcurve" smooth="yes"/>
      <point x="1185" y="1187" type="line" smooth="yes"/>
      <point x="1202" y="1187"/>
      <point x="1226" y="1179"/>
      <point x="1233.5" y="1167.5" type="qcurve" smooth="yes" name="inserted"/>
      <point x="1241" y="1156"/>
      <point x="1248" y="1116"/>
      <point x="1248" y="1084" type="qcurve" smooth="yes"/>
      <point x="1248" y="1052"/>
      <point x="1241" y="1012"/>
      <point x="1233.5" y="1001.0" type="qcurve" smooth="yes" name="inserted"/>
      <point x="1226" y="990"/>
      <point x="1202" y="982"/>
      <point x="1185" y="982" type="qcurve" smooth="yes"/>
      <point x="1129" y="982" type="line"/>
      <point x="1028" y="43" type="line" smooth="yes"/>
      <point x="1026" y="25"/>
      <point x="1013" y="0"/>
      <point x="999.5" y="-7.5" type="qcurve" smooth="yes" name="inserted"/>
      <point x="986" y="-15"/>
      <point x="941" y="-22"/>
      <point x="907" y="-22" type="qcurve" smooth="yes"/>
      <point x="839" y="-22"/>
      <point x="781" y="9"/>
      <point x="770" y="43" type="qcurve" smooth="yes"/>
      <point x="610" y="514" type="line"/>
      <point x="448" y="43" type="line" smooth="yes"/>
      <point x="442" y="26"/>
      <point x="423" y="1"/>
      <point x="407.0" y="-7.0" type="qcurve" smooth="yes" name="inserted"/>
      <point x="391" y="-15"/>
      <point x="343" y="-22"/>
      <point x="309" y="-22" type="qcurve" smooth="yes"/>
      <point x="275" y="-22"/>
      <point x="231" y="-15"/>
      <point x="217.5" y="-7.5" type="qcurve" smooth="yes" name="inserted"/>
      <point x="204" y="0"/>
      <point x="192" y="25"/>
      <point x="190" y="43" type="qcurve" smooth="yes"/>
      <point x="93" y="982" type="line"/>
      <point x="43" y="982" type="line" smooth="yes"/>
      <point x="26" y="982"/>
      <point x="2" y="990"/>
      <point x="-5.5" y="1001.0" type="qcurve" smooth="yes" name="inserted"/>
      <point x="-13" y="1012"/>
      <point x="-20" y="1052"/>
      <point x="-20" y="1084" type="qcurve" smooth="yes"/>
      <point x="-20" y="1116"/>
      <point x="-13" y="1156"/>
      <point x="-5.5" y="1167.5" type="qcurve" smooth="yes" name="inserted"/>
      <point x="2" y="1179"/>
      <point x="26" y="1187"/>
      <point x="43" y="1187" type="qcurve" smooth="yes"/>
    </contour>
  </outline>
</glyph>
<glyph name="Z" format="2">
  <advance width="1228"/>
  <unicode hex="005A"/>
  <outline>
    <contour>
      <point x="850" y="215" type="line"/>
      <point x="850" y="437" type="line" smooth="yes"/>
      <point x="850" y="471"/>
      <point x="908" y="500"/>
      <point x="972" y="500" type="qcurve" smooth="yes"/>
      <point x="1004" y="500"/>
      <point x="1046" y="493"/>
      <point x="1058.0" y="485.5" type="qcurve" smooth="yes" name="inserted"/>
      <point x="1070" y="478"/>
      <point x="1080" y="454"/>
      <point x="1080" y="437" type="qcurve" smooth="yes"/>
      <point x="1080" y="65" type="line" smooth="yes"/>
      <point x="1080" y="30"/>
      <point x="1050" y="0"/>
      <point x="1015" y="0" type="qcurve" smooth="yes"/>
      <point x="201" y="0" type="line" smooth="yes"/>
      <point x="184" y="0"/>
      <point x="160" y="8"/>
      <point x="152.5" y="19.0" type="qcurve" smooth="yes" name="inserted"/>
      <point x="145" y="30"/>
      <point x="138" y="70"/>
      <point x="138" y="102" type="qcurve" smooth="yes"/>
      <point x="138.0" y="135.0" name="inserted"/>
      <point x="148.0" y="181.5"/>
      <point x="158" y="195" type="qcurve" smooth="yes"/>
      <point x="732" y="972" type="line"/>
      <point x="398" y="972" type="line"/>
      <point x="398" y="770" type="line" smooth="yes"/>
      <point x="398" y="736"/>
      <point x="340" y="707"/>
      <point x="276" y="707" type="qcurve" smooth="yes"/>
      <point x="244" y="707"/>
      <point x="202" y="714"/>
      <point x="190.0" y="721.5" type="qcurve" smooth="yes" name="inserted"/>
      <point x="178" y="729"/>
      <point x="168" y="753"/>
      <point x="168" y="770" type="qcurve" smooth="yes"/>
      <point x="168" y="1122" type="line" smooth="yes"/>
      <point x="168" y="1157"/>
      <point x="198" y="1187"/>
      <point x="233" y="1187" type="qcurve" smooth="yes"/>
      <point x="1017" y="1187" type="line" smooth="yes"/>
      <point x="1034" y="1187"/>
      <point x="1058" y="1179"/>
      <point x="1065.5" y="1167.5" type="qcurve" smooth="yes" name="inserted"/>
      <point x="1073" y="1156"/>
      <point x="1080" y="1116"/>
      <point x="1080" y="1084" type="qcurve" smooth="yes"/>
      <point x="1080" y="1052"/>
      <point x="1068" y="1007"/>
      <point x="1057" y="992" type="qcurve" smooth="yes"/>
      <point x="483" y="215" type="line"/>
    </contour>
  </outline>
</glyph>
<glyph name="bracketleft" format="2">
  <advance width="1228"/>
  <unicode hex="005B"/>
  <outline>
    <contour>
      <point x="863" y="-188" type="line" smooth="yes"/>
      <point x="880" y="-188"/>
      <point x="904" y="-196"/>
      <point x="911.5" y="-207.0" type="qcurve" smooth="yes" name="inserted"/>
      <point x="919" y="-218"/>
      <point x="926" y="-258"/>
      <point x="926" y="-290" type="qcurve" smooth="yes"/>
      <point x="926" y="-322"/>
      <point x="919" y="-362"/>
      <point x="911.5" y="-373.5" type="qcurve" smooth="yes" name="inserted"/>
      <point x="904" y="-385"/>
      <point x="880" y="-393"/>
      <point x="863" y="-393" type="qcurve" smooth="yes"/>
      <point x="353" y="-393" type="line" smooth="yes"/>
      <point x="319" y="-393"/>
      <point x="290" y="-364"/>
      <point x="290" y="-330" type="qcurve" smooth="yes"/>
      <point x="290" y="1249" type="line" smooth="yes"/>
      <point x="290" y="1283"/>
      <point x="319" y="1312"/>
      <point x="353" y="1312" type="qcurve" smooth="yes"/>
      <point x="863" y="1312" type="line" smooth="yes"/>
      <point x="880" y="1312"/>
      <point x="904" y="1304"/>
      <point x="911.5" y="1292.5" type="qcurve" smooth="yes" name="inserted"/>
      <point x="919" y="1281"/>
      <point x="926" y="1241"/>
      <point x="926" y="1209" type="qcurve" smooth="yes"/>
      <point x="926" y="1177"/>
      <point x="919" y="1137"/>
      <point x="911.5" y="1126.0" type="qcurve" smooth="yes" name="inserted"/>
      <point x="904" y="1115"/>
      <point x="880" y="1107"/>
      <point x="863" y="1107" type="qcurve" smooth="yes"/>
      <point x="540" y="1107" type="line"/>
      <point x="540" y="-188" type="line"/>
    </contour>
  </outline>
</glyph>
<glyph name="asciicircum" format="2">
  <advance width="1228"/>
  <unicode hex="005E"/>
  <outline>
    <contour>
      <point x="427" y="497" type="line" smooth="yes"/>
      <point x="421" y="485"/>
      <point x="393" y="472"/>
      <point x="373.5" y="469.5" type="qcurve" smooth="yes" name="inserted"/>
      <point x="354" y="467"/>
      <point x="310" y="471"/>
      <point x="288" y="476" type="qcurve" smooth="yes"/>
      <point x="265" y="481"/>
      <point x="226" y="498"/>
      <point x="212.5" y="509.0" type="qcurve" smooth="yes" name="inserted"/>
      <point x="199" y="520"/>
      <point x="190" y="547"/>
      <point x="198" y="562" type="qcurve" smooth="yes"/>
      <point x="516" y="1172" type="line" smooth="yes"/>
      <point x="525" y="1190"/>
      <point x="569" y="1209"/>
      <point x="614" y="1209" type="qcurve" smooth="yes"/>
      <point x="658" y="1209"/>
      <point x="703" y="1190"/>
      <point x="712" y="1172" type="qcurve" smooth="yes"/>
      <point x="1030" y="562" type="line" smooth="yes"/>
      <point x="1038" y="547"/>
      <point x="1029" y="520"/>
      <point x="1015.5" y="509.0" type="qcurve" smooth="yes" name="inserted"/>
      <point x="1002" y="498"/>
      <point x="962" y="481"/>
      <point x="940" y="476" type="qcurve" smooth="yes"/>
      <point x="918" y="471"/>
      <point x="874" y="467"/>
      <point x="854.5" y="469.5" type="qcurve" smooth="yes" name="inserted"/>
      <point x="835" y="472"/>
      <point x="807" y="485"/>
      <point x="801" y="497" type="qcurve" smooth="yes"/>
      <point x="614" y="887" type="line"/>
    </contour>
  </outline>
</glyph>
<glyph name="underscore" format="2">
  <advance width="1228"/>
  <unicode hex="005F"/>
  <outline>
    <contour>
      <point x="-5" y="-513" type="line" smooth="yes"/>
      <point x="-14" y="-513"/>
      <point x="-27" y="-505"/>
      <point x="-31.0" y="-493.0" type="qcurve" smooth="yes" name="inserted"/>
      <point x="-35" y="-481"/>
      <point x="-38" y="-437"/>
      <point x="-38" y="-401" type="qcurve" smooth="yes"/>
      <point x="-38" y="-365"/>
      <point x="-35" y="-321"/>
      <point x="-31.0" y="-309.0" type="qcurve" smooth="yes" name="inserted"/>
      <point x="-27" y="-297"/>
      <point x="-14" y="-288"/>
      <point x="-5" y="-288" type="qcurve" smooth="yes"/>
      <point x="1233" y="-288" type="line" smooth="yes"/>
      <point x="1242" y="-288"/>
      <point x="1255" y="-297"/>
      <point x="1259.0" y="-309.0" type="qcurve" smooth="yes" name="inserted"/>
      <point x="1263" y="-321"/>
      <point x="1266" y="-365"/>
      <point x="1266" y="-401" type="qcurve" smooth="yes"/>
      <point x="1266" y="-437"/>
      <point x="1263" y="-481"/>
      <point x="1259.0" y="-493.0" type="qcurve" smooth="yes" name="inserted"/>
      <point x="1255" y="-505"/>
      <point x="1242" y="-513"/>
      <point x="1233" y="-513" type="qcurve" smooth="yes"/>
    </contour>
  </outline>
</glyph>
<glyph name="a" format="2">
  <advance width="1228"/>
  <unicode hex="0061"/>
  <outline>
    <contour>
      <point x="822" y="106" type="qcurve"/>
      <point x="745" y="46"/>
      <point x="570" y="-22"/>
      <point x="474" y="-22" type="qcurve" smooth="yes"/>
      <point x="388" y="-22"/>
      <point x="253" y="22"/>
      <point x="206.0" y="63.5" type="qcurve" smooth="yes" name="inserted"/>
      <point x="159" y="105"/>
      <point x="110" y="222"/>
      <point x="110" y="295" type="qcurve" smooth="yes"/>
      <point x="110" y="365"/>
      <point x="161" y="475"/>
      <point x="209.5" y="512.5" type="qcurve" smooth="yes" name="inserted"/>
      <point x="258" y="550"/>
      <point x="397" y="589"/>
      <point x="486" y="589" type="qcurve" smooth="yes"/>
      <point x="552.5" y="589.0" name="inserted"/>
      <point x="694.0" y="574.0"/>
      <point x="769" y="559" type="qcurve"/>
      <point x="769" y="588" type="line" smooth="yes"/>
      <point x="769" y="619"/>
      <point x="749" y="668"/>
      <point x="726.5" y="685.0" type="qcurve" smooth="yes" name="inserted"/>
      <point x="704" y="702"/>
      <point x="629" y="719"/>
      <point x="575" y="719" type="qcurve" smooth="yes"/>
      <point x="515" y="719"/>
      <point x="373" y="689"/>
      <point x="304" y="666" type="qcurve" smooth="yes"/>
      <point x="288" y="661"/>
      <point x="260" y="660"/>
      <point x="247.0" y="667.5" type="qcurve" smooth="yes" name="inserted"/>
      <point x="234" y="675"/>
      <point x="210" y="710"/>
      <point x="199" y="740" type="qcurve" smooth="yes"/>
      <point x="177" y="800"/>
      <point x="191" y="864"/>
      <point x="226" y="877" type="qcurve" smooth="yes"/>
      <point x="273" y="894"/>
      <point x="372" y="920"/>
      <point x="420.5" y="928.5" type="qcurve" smooth="yes" name="inserted"/>
      <point x="469" y="937"/>
      <point x="562" y="946"/>
      <point x="603" y="946" type="qcurve" smooth="yes"/>
      <point x="717" y="946"/>
      <point x="876" y="895"/>
      <point x="925.5" y="847.0" type="qcurve" smooth="yes" name="inserted"/>
      <point x="975" y="799"/>
      <point x="1019" y="663"/>
      <point x="1019" y="579" type="qcurve" smooth="yes"/>
      <point x="1019" y="290" type="line" smooth="yes"/>
      <point x="1019" y="250"/>
      <point x="1053" y="205"/>
      <point x="1085" y="205" type="qcurve" smooth="yes"/>
      <point x="1116" y="205" type="line" smooth="yes"/>
      <point x="1133" y="205"/>
      <point x="1157" y="197"/>
      <point x="1164.5" y="185.5" type="qcurve" smooth="yes" name="inserted"/>
      <point x="1172" y="174"/>
      <point x="1179" y="134"/>
      <point x="1179" y="102" type="qcurve" smooth="yes"/>
      <point x="1179" y="70"/>
      <point x="1172" y="30"/>
      <point x="1164.5" y="19.0" type="qcurve" smooth="yes" name="inserted"/>
      <point x="1157" y="8"/>
      <point x="1133" y="0"/>
      <point x="1116" y="0" type="qcurve" smooth="yes"/>
      <point x="1004" y="0" type="line" smooth="yes"/>
      <point x="944" y="0"/>
      <point x="848" y="49"/>
    </contour>
    <contour>
      <point x="769" y="356" type="line"/>
      <point x="699" y="370"/>
      <point x="572" y="383"/>
      <point x="511" y="383" type="qcurve" smooth="yes"/>
      <point x="440" y="383"/>
      <point x="368" y="333"/>
      <point x="368" y="285" type="qcurve" smooth="yes"/>
      <point x="368" y="237"/>
      <point x="439" y="189"/>
      <point x="506" y="189" type="qcurve" smooth="yes"/>
      <point x="578" y="189"/>
      <point x="712" y="246"/>
      <point x="769" y="292" type="qcurve"/>
    </contour>
  </outline>
</glyph>
<glyph name="g" format="2">
  <advance width="1228"/>
  <unicode hex="0067"/>
  <outline>
    <contour>
      <point x="1041" y="-4" type="line" smooth="yes"/>
      <point x="1041" y="-100"/>
      <point x="984" y="-252"/>
      <point x="926.5" y="-305.5" type="qcurve" smooth="yes" name="inserted"/>
      <point x="869" y="-359"/>
      <point x="695" y="-415"/>
      <point x="577" y="-415" type="qcurve" smooth="yes"/>
      <point x="504" y="-415"/>
      <point x="324" y="-385"/>
      <point x="224" y="-356" type="qcurve" smooth="yes"/>
      <point x="189" y="-345"/>
      <point x="171" y="-283"/>
      <point x="190" y="-221" type="qcurve" smooth="yes"/>
      <point x="199" y="-191"/>
      <point x="221" y="-155"/>
      <point x="233.5" y="-146.5" type="qcurve" smooth="yes" name="inserted"/>
      <point x="246" y="-138"/>
      <point x="274" y="-137"/>
      <point x="290" y="-141" type="qcurve" smooth="yes"/>
      <point x="360" y="-161"/>
      <point x="507" y="-188"/>
      <point x="567" y="-188" type="qcurve" smooth="yes"/>
      <point x="688" y="-188"/>
      <point x="791" y="-85"/>
      <point x="791" y="16" type="qcurve" smooth="yes"/>
      <point x="791" y="123" type="line"/>
      <point x="740" y="68"/>
      <point x="607" y="8"/>
      <point x="528" y="8" type="qcurve" smooth="yes"/>
      <point x="429" y="8"/>
      <point x="270" y="79"/>
      <point x="213.5" y="141.5" type="qcurve" smooth="yes" name="inserted"/>
      <point x="157" y="204"/>
      <point x="97" y="376"/>
      <point x="97" y="477" type="qcurve" smooth="yes"/>
      <point x="97" y="578"/>
      <point x="157" y="750"/>
      <point x="213.5" y="812.5" type="qcurve" smooth="yes" name="inserted"/>
      <point x="270" y="875"/>
      <point x="429" y="946"/>
      <point x="528" y="946" type="qcurve" smooth="yes"/>
      <point x="625" y="946"/>
      <point x="779" y="866"/>
      <point x="831" y="791" type="qcurve"/>
      <point x="831" y="861" type="line" smooth="yes"/>
      <point x="831" y="895"/>
      <point x="860" y="924"/>
      <point x="894" y="924" type="qcurve" smooth="yes"/>
      <point x="1128" y="924" type="line" smooth="yes"/>
      <point x="1145" y="924"/>
      <point x="1169" y="916"/>
      <point x="1176.5" y="904.5" type="qcurve" smooth="yes" name="inserted"/>
      <point x="1184" y="893"/>
      <point x="1191" y="853"/>
      <point x="1191" y="821" type="qcurve" smooth="yes"/>
      <point x="1191" y="789"/>
      <point x="1184" y="749"/>
      <point x="1176.5" y="738.0" type="qcurve" smooth="yes" name="inserted"/>
      <point x="1169" y="727"/>
      <point x="1145" y="719"/>
      <point x="1128" y="719" type="qcurve" smooth="yes"/>
      <point x="1041" y="719" type="line"/>
    </contour>
    <contour>
      <point x="798" y="477" type="qcurve" smooth="yes"/>
      <point x="798" y="538"/>
      <point x="761" y="629"/>
      <point x="729.5" y="659.0" type="qcurve" smooth="yes" name="inserted"/>
      <point x="698" y="689"/>
      <point x="615" y="719"/>
      <point x="568" y="719" type="qcurve" smooth="yes"/>
      <point x="476" y="719"/>
      <point x="365" y="595"/>
      <point x="365" y="477" type="qcurve" smooth="yes"/>
      <point x="365" y="359"/>
      <point x="476" y="235"/>
      <point x="568" y="235" type="qcurve" smooth="yes"/>
      <point x="615" y="235"/>
      <point x="698" y="265"/>
      <point x="729.5" y="295.0" type="qcurve" smooth="yes" name="inserted"/>
      <point x="761" y="325"/>
      <point x="798" y="416"/>
    </contour>
  </outline>
</glyph>
<glyph name="r" format="2">
  <advance width="1228"/>
  <unicode hex="0072"/>
  <outline>
    <contour>
      <point x="337" y="719" type="line"/>
      <point x="220" y="719" type="line" smooth="yes"/>
      <point x="203" y="719"/>
      <point x="179" y="727"/>
      <point x="171.5" y="738.0" type="qcurve" smooth="yes" name="inserted"/>
      <point x="164" y="749"/>
      <point x="157" y="789"/>
      <point x="157" y="821" type="qcurve" smooth="yes"/>
      <point x="157" y="853"/>
      <point x="164" y="893"/>
      <point x="171.5" y="904.5" type="qcurve" smooth="yes" name="inserted"/>
      <point x="179" y="916"/>
      <point x="203" y="924"/>
      <point x="220" y="924" type="qcurve" smooth="yes"/>
      <point x="494" y="924" type="line" smooth="yes"/>
      <point x="528" y="924"/>
      <point x="557" y="895"/>
      <point x="557" y="861" type="qcurve" smooth="yes"/>
      <point x="557" y="644" type="line"/>
      <point x="633" y="790"/>
      <point x="827" y="946"/>
      <point x="927" y="946" type="qcurve" smooth="yes"/>
      <point x="969.5" y="946.0" name="inserted"/>
      <point x="1049.5" y="918.0"/>
      <point x="1087" y="890" type="qcurve" smooth="yes"/>
      <point x="1124" y="862"/>
      <point x="1136" y="785"/>
      <point x="1113" y="728" type="qcurve" smooth="yes"/>
      <point x="1089" y="667"/>
      <point x="1027" y="628"/>
      <point x="995" y="645" type="qcurve" smooth="yes"/>
      <point x="966" y="661"/>
      <point x="908" y="676"/>
      <point x="879" y="676" type="qcurve" smooth="yes"/>
      <point x="821" y="676"/>
      <point x="716" y="620"/>
      <point x="675.5" y="570.0" type="qcurve" smooth="yes" name="inserted"/>
      <point x="635" y="520"/>
      <point x="587" y="382"/>
      <point x="587" y="300" type="qcurve" smooth="yes"/>
      <point x="587" y="205" type="line"/>
      <point x="874" y="205" type="line" smooth="yes"/>
      <point x="891" y="205"/>
      <point x="915" y="197"/>
      <point x="922.5" y="185.5" type="qcurve" smooth="yes" name="inserted"/>
      <point x="930" y="174"/>
      <point x="937" y="134"/>
      <point x="937" y="102" type="qcurve" smooth="yes"/>
      <point x="937" y="70"/>
      <point x="930" y="30"/>
      <point x="922.5" y="19.0" type="qcurve" smooth="yes" name="inserted"/>
      <point x="915" y="8"/>
      <point x="891" y="0"/>
      <point x="874" y="0" type="qcurve" smooth="yes"/>
      <point x="190" y="0" type="line" smooth="yes"/>
      <point x="173" y="0"/>
      <point x="149" y="8"/>
      <point x="141.5" y="19.0" type="qcurve" smooth="yes" name="inserted"/>
      <point x="134" y="30"/>
      <point x="127" y="70"/>
      <point x="127" y="102" type="qcurve" smooth="yes"/>
      <point x="127" y="134"/>
      <point x="134" y="174"/>
      <point x="141.5" y="185.5" type="qcurve" smooth="yes" name="inserted"/>
      <point x="149" y="197"/>
      <point x="173" y="205"/>
      <point x="190" y="205" type="qcurve" smooth="yes"/>
      <point x="337" y="205" type="line"/>
    </contour>
  </outline>
</glyph>
<glyph name="t" format="2">
  <advance width="1228"/>
  <unicode hex="0074"/>
  <outline>
    <contour>
      <point x="160" y="649" type="line" smooth="yes"/>
      <point x="143" y="649"/>
      <point x="119" y="659"/>
      <point x="111.5" y="671.0" type="qcurve" smooth="yes" name="inserted"/>
      <point x="104" y="683"/>
      <point x="97" y="724"/>
      <point x="97" y="756" type="qcurve" smooth="yes"/>
      <point x="97" y="788"/>
      <point x="104" y="830"/>
      <point x="111.5" y="842.0" type="qcurve" smooth="yes" name="inserted"/>
      <point x="119" y="854"/>
      <point x="143" y="864"/>
      <point x="160" y="864" type="qcurve" smooth="yes"/>
      <point x="353" y="864" type="line"/>
      <point x="353" y="1146" type="line" smooth="yes"/>
      <point x="353" y="1180"/>
      <point x="413" y="1209"/>
      <point x="485" y="1209" type="qcurve" smooth="yes"/>
      <point x="521" y="1209"/>
      <point x="566" y="1202"/>
      <point x="579.5" y="1194.5" type="qcurve" smooth="yes" name="inserted"/>
      <point x="593" y="1187"/>
      <point x="603" y="1163"/>
      <point x="603" y="1146" type="qcurve" smooth="yes"/>
      <point x="603" y="864" type="line"/>
      <point x="974" y="864" type="line" smooth="yes"/>
      <point x="991" y="864"/>
      <point x="1015" y="854"/>
      <point x="1022.5" y="842.0" type="qcurve" smooth="yes" name="inserted"/>
      <point x="1030" y="830"/>
      <point x="1037" y="788"/>
      <point x="1037" y="756" type="qcurve" smooth="yes"/>
      <point x="1037" y="724"/>
      <point x="1030" y="683"/>
      <point x="1022.5" y="671.0" type="qcurve" smooth="yes" name="inserted"/>
      <point x="1015" y="659"/>
      <point x="991" y="649"/>
      <point x="974" y="649" type="qcurve" smooth="yes"/>
      <point x="603" y="649" type="line"/>
      <point x="603" y="371" type="line" smooth="yes"/>
      <point x="603" y="284"/>
      <point x="670" y="205"/>
      <point x="732" y="205" type="qcurve" smooth="yes"/>
      <point x="757" y="205"/>
      <point x="818" y="218"/>
      <point x="850.0" y="229.0" type="qcurve" smooth="yes" name="inserted"/>
      <point x="882" y="240"/>
      <point x="950" y="268"/>
      <point x="983" y="283" type="qcurve" smooth="yes"/>
      <point x="998" y="290"/>
      <point x="1027" y="293"/>
      <point x="1040.5" y="286.5" type="qcurve" smooth="yes" name="inserted"/>
      <point x="1054" y="280"/>
      <point x="1079" y="247"/>
      <point x="1091" y="217" type="qcurve" smooth="yes"/>
      <point x="1115" y="158"/>
      <point x="1100" y="98"/>
      <point x="1067" y="82" type="qcurve" smooth="yes"/>
      <point x="976" y="36"/>
      <point x="797" y="-22"/>
      <point x="710" y="-22" type="qcurve" smooth="yes"/>
      <point x="535" y="-22"/>
      <point x="353" y="170"/>
      <point x="353" y="358" type="qcurve" smooth="yes"/>
      <point x="353" y="649" type="line"/>
    </contour>
  </outline>
</glyph>
<glyph name="w" format="2">
  <advance width="1228"/>
  <unicode hex="0077"/>
  <outline>
    <contour>
      <point x="43" y="719" type="line" smooth="yes"/>
      <point x="26" y="719"/>
      <point x="2" y="727"/>
      <point x="-5.5" y="738.0" type="qcurve" smooth="yes" name="inserted"/>
      <point x="-13" y="749"/>
      <point x="-20" y="789"/>
      <point x="-20" y="821" type="qcurve" smooth="yes"/>
      <point x="-20" y="853"/>
      <point x="-13" y="893"/>
      <point x="-5.5" y="904.5" type="qcurve" smooth="yes" name="inserted"/>
      <point x="2" y="916"/>
      <point x="26" y="924"/>
      <point x="43" y="924" type="qcurve" smooth="yes"/>
      <point x="387" y="924" type="line" smooth="yes"/>
      <point x="404" y="924"/>
      <point x="428" y="916"/>
      <point x="435.5" y="904.5" type="qcurve" smooth="yes" name="inserted"/>
      <point x="443" y="893"/>
      <point x="450" y="853"/>
      <point x="450" y="821" type="qcurve" smooth="yes"/>
      <point x="450" y="789"/>
      <point x="443" y="749"/>
      <point x="435.5" y="738.0" type="qcurve" smooth="yes" name="inserted"/>
      <point x="428" y="727"/>
      <point x="404" y="719"/>
      <point x="387" y="719" type="qcurve" smooth="yes"/>
      <point x="302" y="719" type="line"/>
      <point x="377" y="331" type="line"/>
      <point x="515" y="670" type="line" smooth="yes"/>
      <point x="526" y="696"/>
      <point x="567" y="727"/>
      <point x="611" y="727" type="qcurve" smooth="yes"/>
      <point x="656" y="727"/>
      <point x="697" y="703"/>
      <point x="708" y="677" type="qcurve" smooth="yes"/>
      <point x="845" y="331" type="line"/>
      <point x="923" y="719" type="line"/>
      <point x="851" y="719" type="line" smooth="yes"/>
      <point x="834" y="719"/>
      <point x="810" y="727"/>
      <point x="802.5" y="738.0" type="qcurve" smooth="yes" name="inserted"/>
      <point x="795" y="749"/>
      <point x="788" y="789"/>
      <point x="788" y="821" type="qcurve" smooth="yes"/>
      <point x="788" y="853"/>
      <point x="795" y="893"/>
      <point x="802.5" y="904.5" type="qcurve" smooth="yes" name="inserted"/>
      <point x="810" y="916"/>
      <point x="834" y="924"/>
      <point x="851" y="924" type="qcurve" smooth="yes"/>
      <point x="1185" y="924" type="line" smooth="yes"/>
      <point x="1202" y="924"/>
      <point x="1226" y="916"/>
      <point x="1233.5" y="904.5" type="qcurve" smooth="yes" name="inserted"/>
      <point x="1241" y="893"/>
      <point x="1248" y="853"/>
      <point x="1248" y="821" type="qcurve" smooth="yes"/>
      <point x="1248" y="789"/>
      <point x="1241" y="749"/>
      <point x="1233.5" y="738.0" type="qcurve" smooth="yes" name="inserted"/>
      <point x="1226" y="727"/>
      <point x="1202" y="719"/>
      <point x="1185" y="719" type="qcurve" smooth="yes"/>
      <point x="1144" y="719" type="line"/>
      <point x="998" y="43" type="line" smooth="yes"/>
      <point x="990" y="7"/>
      <point x="938" y="-22"/>
      <point x="877" y="-22" type="qcurve" smooth="yes"/>
      <point x="816" y="-22"/>
      <point x="763" y="10"/>
      <point x="750" y="43" type="qcurve" smooth="yes"/>
      <point x="610" y="398" type="line"/>
      <point x="468" y="43" type="line" smooth="yes"/>
      <point x="461" y="26"/>
      <point x="442" y="2"/>
      <point x="427.0" y="-6.0" type="qcurve" smooth="yes" name="inserted"/>
      <point x="412" y="-14"/>
      <point x="369" y="-22"/>
      <point x="339" y="-22" type="qcurve" smooth="yes"/>
      <point x="309" y="-22"/>
      <point x="267" y="-15"/>
      <point x="253.0" y="-7.0" type="qcurve" smooth="yes" name="inserted"/>
      <point x="239" y="1"/>
      <point x="224" y="25"/>
      <point x="220" y="43" type="qcurve" smooth="yes"/>
      <point x="77" y="719" type="line"/>
    </contour>
  </outline>
</glyph>
<glyph name="dieresis" format="2">
  <advance width="1228"/>
  <unicode hex="00A8"/>
  <outline>
    <contour>
      <point x="234" y="1195" type="qcurve" smooth="yes"/>
      <point x="234" y="1226"/>
      <point x="258" y="1281"/>
      <point x="278.0" y="1301.0" type="qcurve" smooth="yes" name="inserted"/>
      <point x="298" y="1321"/>
      <point x="353" y="1345"/>
      <point x="384" y="1345" type="qcurve" smooth="yes"/>
      <point x="415" y="1345"/>
      <point x="470" y="1321"/>
      <point x="490.0" y="1301.0" type="qcurve" smooth="yes" name="inserted"/>
      <point x="510" y="1281"/>
      <point x="534" y="1226"/>
      <point x="534" y="1195" type="qcurve" smooth="yes"/>
      <point x="534" y="1164"/>
      <point x="510" y="1109"/>
      <point x="490.0" y="1089.0" type="qcurve" smooth="yes" name="inserted"/>
      <point x="470" y="1069"/>
      <point x="415" y="1045"/>
      <point x="384" y="1045" type="qcurve" smooth="yes"/>
      <point x="353" y="1045"/>
      <point x="298" y="1069"/>
      <point x="278.0" y="1089.0" type="qcurve" smooth="yes" name="inserted"/>
      <point x="258" y="1109"/>
      <point x="234" y="1164"/>
    </contour>
    <contour>
      <point x="694" y="1195" type="qcurve" smooth="yes"/>
      <point x="694" y="1226"/>
      <point x="718" y="1281"/>
      <point x="738.0" y="1301.0" type="qcurve" smooth="yes" name="inserted"/>
      <point x="758" y="1321"/>
      <point x="813" y="1345"/>
      <point x="844" y="1345" type="qcurve" smooth="yes"/>
      <point x="875" y="1345"/>
      <point x="930" y="1321"/>
      <point x="950.0" y="1301.0" type="qcurve" smooth="yes" name="inserted"/>
      <point x="970" y="1281"/>
      <point x="994" y="1226"/>
      <point x="994" y="1195" type="qcurve" smooth="yes"/>
      <point x="994" y="1164"/>
      <point x="970" y="1109"/>
      <point x="950.0" y="1089.0" type="qcurve" smooth="yes" name="inserted"/>
      <point x="930" y="1069"/>
      <point x="875" y="1045"/>
      <point x="844" y="1045" type="qcurve" smooth="yes"/>
      <point x="813" y="1045"/>
      <point x="758" y="1069"/>
      <point x="738.0" y="1089.0" type="qcurve" smooth="yes" name="inserted"/>
      <point x="718" y="1109"/>
      <point x="694" y="1164"/>
    </contour>
  </outline>
</glyph>
<glyph name="ordfeminine" format="2">
  <advance width="1228"/>
  <unicode hex="00AA"/>
  <outline>
    <contour>
      <point x="776" y="563" type="qcurve"/>
      <point x="717" y="518"/>
      <point x="582" y="465"/>
      <point x="508" y="465" type="qcurve" smooth="yes"/>
      <point x="442" y="465"/>
      <point x="338" y="499"/>
      <point x="302.5" y="530.5" type="qcurve" smooth="yes" name="inserted"/>
      <point x="267" y="562"/>
      <point x="229" y="653"/>
      <point x="229" y="709" type="qcurve" smooth="yes"/>
      <point x="229" y="817"/>
      <point x="381" y="935"/>
      <point x="518" y="935" type="qcurve" smooth="yes"/>
      <point x="569" y="935"/>
      <point x="677" y="923"/>
      <point x="735" y="912" type="qcurve"/>
      <point x="735" y="934" type="line" smooth="yes"/>
      <point x="735" y="982"/>
      <point x="670" y="1035"/>
      <point x="586" y="1035" type="qcurve" smooth="yes"/>
      <point x="540" y="1035"/>
      <point x="431" y="1011"/>
      <point x="378" y="994" type="qcurve" smooth="yes"/>
      <point x="347" y="984"/>
      <point x="308" y="1015"/>
      <point x="293" y="1060" type="qcurve" smooth="yes"/>
      <point x="282" y="1093"/>
      <point x="287" y="1145"/>
      <point x="318" y="1156" type="qcurve" smooth="yes"/>
      <point x="390" y="1182"/>
      <point x="545" y="1209"/>
      <point x="608" y="1209" type="qcurve" smooth="yes"/>
      <point x="696" y="1209"/>
      <point x="818" y="1170"/>
      <point x="856.0" y="1133.0" type="qcurve" smooth="yes" name="inserted"/>
      <point x="894" y="1096"/>
      <point x="928" y="992"/>
      <point x="928" y="927" type="qcurve" smooth="yes"/>
      <point x="928" y="705" type="line" smooth="yes"/>
      <point x="928" y="674"/>
      <point x="953" y="640"/>
      <point x="978" y="640" type="qcurve" smooth="yes"/>
      <point x="1002" y="640" type="line" smooth="yes"/>
      <point x="1028" y="640"/>
      <point x="1051" y="609"/>
      <point x="1051" y="560" type="qcurve" smooth="yes"/>
      <point x="1051" y="536"/>
      <point x="1046" y="505"/>
      <point x="1040.0" y="496.5" type="qcurve" smooth="yes" name="inserted"/>
      <point x="1034" y="488"/>
      <point x="1015" y="482"/>
      <point x="1002" y="482" type="qcurve" smooth="yes"/>
      <point x="916" y="482" type="line" smooth="yes"/>
      <point x="870" y="482"/>
      <point x="796" y="519"/>
    </contour>
    <contour>
      <point x="735" y="756" type="line"/>
      <point x="681" y="767"/>
      <point x="584" y="776"/>
      <point x="537" y="776" type="qcurve" smooth="yes"/>
      <point x="483" y="776"/>
      <point x="427" y="737"/>
      <point x="427" y="701" type="qcurve" smooth="yes"/>
      <point x="427" y="665"/>
      <point x="482" y="627"/>
      <point x="533" y="627" type="qcurve" smooth="yes"/>
      <point x="588" y="627"/>
      <point x="692" y="671"/>
      <point x="735" y="706" type="qcurve"/>
    </contour>
  </outline>
</glyph>
<glyph name="registered" format="2">
  <advance width="1228"/>
  <unicode hex="00AE"/>
  <outline>
    <contour>
      <point x="28" y="594" type="qcurve" smooth="yes"/>
      <point x="28" y="725"/>
      <point x="115" y="950"/>
      <point x="193.0" y="1032.5" type="qcurve" smooth="yes" name="inserted"/>
      <point x="271" y="1115"/>
      <point x="485" y="1209"/>
      <point x="613" y="1209" type="qcurve" smooth="yes"/>
      <point x="740" y="1209"/>
      <point x="955" y="1115"/>
      <point x="1033.0" y="1032.5" type="qcurve" smooth="yes" name="inserted"/>
      <point x="1111" y="950"/>
      <point x="1198" y="725"/>
      <point x="1198" y="594" type="qcurve" smooth="yes"/>
      <point x="1198" y="463"/>
      <point x="1111" y="237"/>
      <point x="1033.0" y="154.5" type="qcurve" smooth="yes" name="inserted"/>
      <point x="955" y="72"/>
      <point x="740" y="-22"/>
      <point x="613" y="-22" type="qcurve" smooth="yes"/>
      <point x="485" y="-22"/>
      <point x="271" y="72"/>
      <point x="193.0" y="154.5" type="qcurve" smooth="yes" name="inserted"/>
      <point x="115" y="237"/>
      <point x="28" y="463"/>
    </contour>
    <contour>
      <point x="181" y="594" type="qcurve" smooth="yes"/>
      <point x="181" y="495"/>
      <point x="242" y="326"/>
      <point x="298.5" y="264.0" type="qcurve" smooth="yes" name="inserted"/>
      <point x="355" y="202"/>
      <point x="514" y="131"/>
      <point x="613" y="131" type="qcurve" smooth="yes"/>
      <point x="712" y="131"/>
      <point x="871" y="202"/>
      <point x="927.5" y="264.0" type="qcurve" smooth="yes" name="inserted"/>
      <point x="984" y="326"/>
      <point x="1045" y="495"/>
      <point x="1045" y="594" type="qcurve" smooth="yes"/>
      <point x="1045" y="693"/>
      <point x="984" y="862"/>
      <point x="927.5" y="924.0" type="qcurve" smooth="yes" name="inserted"/>
      <point x="871" y="986"/>
      <point x="712" y="1056"/>
      <point x="613" y="1056" type="qcurve" smooth="yes"/>
      <point x="514" y="1056"/>
      <point x="355" y="986"/>
      <point x="298.5" y="924.0" type="qcurve" smooth="yes" name="inserted"/>
      <point x="242" y="862"/>
      <point x="181" y="693"/>
    </contour>
    <contour>
      <point x="366" y="854" type="line" smooth="yes"/>
      <point x="366" y="888"/>
      <point x="395" y="917"/>
      <point x="429" y="917" type="qcurve" smooth="yes"/>
      <point x="665" y="917" type="line" smooth="yes"/>
      <point x="720" y="917"/>
      <point x="810" y="878"/>
      <point x="841.5" y="845.0" type="qcurve" smooth="yes" name="inserted"/>
      <point x="873" y="812"/>
      <point x="907" y="724"/>
      <point x="907" y="675" type="qcurve" smooth="yes"/>
      <point x="907" y="607"/>
      <point x="845" y="506"/>
      <point x="786" y="478" type="qcurve"/>
      <point x="863" y="390" type="line" smooth="yes"/>
      <point x="886" y="364"/>
      <point x="879" y="318"/>
      <point x="838" y="290" type="qcurve" smooth="yes"/>
      <point x="797" y="262"/>
      <point x="750" y="263"/>
      <point x="729" y="290" type="qcurve" smooth="yes"/>
      <point x="610" y="443" type="line"/>
      <point x="536" y="443" type="line"/>
      <point x="536" y="335" type="line" smooth="yes"/>
      <point x="536" y="318"/>
      <point x="529" y="293"/>
      <point x="520.0" y="285.0" type="qcurve" smooth="yes" name="inserted"/>
      <point x="511" y="277"/>
      <point x="478" y="270"/>
      <point x="451" y="270" type="qcurve" smooth="yes"/>
      <point x="424" y="270"/>
      <point x="391" y="277"/>
      <point x="382.0" y="285.0" type="qcurve" smooth="yes" name="inserted"/>
      <point x="373" y="293"/>
      <point x="366" y="318"/>
      <point x="366" y="335" type="qcurve" smooth="yes"/>
    </contour>
    <contour>
      <point x="536" y="752" type="line"/>
      <point x="536" y="598" type="line"/>
      <point x="635" y="598" type="line" smooth="yes"/>
      <point x="680" y="598"/>
      <point x="729" y="639"/>
      <point x="729" y="675" type="qcurve" smooth="yes"/>
      <point x="729" y="709"/>
      <point x="684" y="752"/>
      <point x="644" y="752" type="qcurve" smooth="yes"/>
    </contour>
  </outline>
</glyph>
<glyph name="twosuperior" format="2">
  <advance width="1228"/>
  <unicode hex="00B2"/>
  <outline>
    <contour>
      <point x="493" y="1047" type="line" smooth="yes"/>
      <point x="493" y="1023"/>
      <point x="459" y="999"/>
      <point x="407" y="999" type="qcurve" smooth="yes"/>
      <point x="354" y="999"/>
      <point x="308" y="1023"/>
      <point x="308" y="1047" type="qcurve" smooth="yes"/>
      <point x="308" y="1220" type="line" smooth="yes"/>
      <point x="308.0" y="1234.0" name="inserted"/>
      <point x="323.5" y="1256.5"/>
      <point x="339" y="1265" type="qcurve" smooth="yes"/>
      <point x="405" y="1300"/>
      <point x="566" y="1334"/>
      <point x="641" y="1334" type="qcurve" smooth="yes"/>
      <point x="715" y="1334"/>
      <point x="828" y="1295"/>
      <point x="866.5" y="1259.5" type="qcurve" smooth="yes" name="inserted"/>
      <point x="905" y="1224"/>
      <point x="944" y="1126"/>
      <point x="944" y="1067" type="qcurve" smooth="yes"/>
      <point x="944" y="1026"/>
      <point x="917" y="954"/>
      <point x="893.0" y="921.0" type="qcurve" smooth="yes" name="inserted"/>
      <point x="869" y="888"/>
      <point x="800" y="826"/>
      <point x="758" y="796" type="qcurve" smooth="yes"/>
      <point x="560" y="653" type="line"/>
      <point x="798" y="653" type="line"/>
      <point x="798" y="699" type="line" smooth="yes"/>
      <point x="798" y="711"/>
      <point x="805" y="729"/>
      <point x="814.5" y="735.0" type="qcurve" smooth="yes" name="inserted"/>
      <point x="824" y="741"/>
      <point x="858" y="747"/>
      <point x="884" y="747" type="qcurve" smooth="yes"/>
      <point x="937" y="747"/>
      <point x="983" y="723"/>
      <point x="983" y="699" type="qcurve" smooth="yes"/>
      <point x="983" y="529" type="line" smooth="yes"/>
      <point x="983" y="504"/>
      <point x="962" y="483"/>
      <point x="937" y="483" type="qcurve" smooth="yes"/>
      <point x="332" y="483" type="line" smooth="yes"/>
      <point x="308" y="483"/>
      <point x="279" y="530"/>
      <point x="279" y="583" type="qcurve" smooth="yes"/>
      <point x="279" y="613"/>
      <point x="294" y="649"/>
      <point x="307" y="659" type="qcurve" smooth="yes"/>
      <point x="634" y="912" type="line" smooth="yes"/>
      <point x="688" y="952"/>
      <point x="742" y="1019"/>
      <point x="742" y="1058" type="qcurve" smooth="yes"/>
      <point x="742" y="1106"/>
      <point x="681" y="1161"/>
      <point x="625" y="1161" type="qcurve" smooth="yes"/>
      <point x="592" y="1161"/>
      <point x="522" y="1148"/>
      <point x="493" y="1135" type="qcurve"/>
    </contour>
  </outline>
</glyph>
<glyph name="guillemotright" format="2">
  <advance width="1228"/>
  <unicode hex="00BB"/>
  <outline>
    <contour>
      <point x="615" y="576" type="line" smooth="yes"/>
      <point x="623.0" y="563.0" name="inserted"/>
      <point x="623.0" y="537.5"/>
      <point x="615" y="525" type="qcurve" smooth="yes"/>
      <point x="406" y="181" type="line" smooth="yes"/>
      <point x="398" y="168"/>
      <point x="369" y="156"/>
      <point x="351.0" y="155.5" type="qcurve" smooth="yes" name="inserted"/>
      <point x="333" y="155"/>
      <point x="292" y="164"/>
      <point x="273" y="173" type="qcurve" smooth="yes"/>
      <point x="253" y="182"/>
      <point x="217" y="207"/>
      <point x="206.0" y="221.5" type="qcurve" smooth="yes" name="inserted"/>
      <point x="195" y="236"/>
      <point x="189" y="266"/>
      <point x="198" y="281" type="qcurve" smooth="yes"/>
      <point x="362" y="551" type="line"/>
      <point x="198" y="820" type="line" smooth="yes"/>
      <point x="189" y="835"/>
      <point x="195" y="865"/>
      <point x="206.0" y="879.5" type="qcurve" smooth="yes" name="inserted"/>
      <point x="217" y="894"/>
      <point x="253" y="919"/>
      <point x="273" y="928" type="qcurve" smooth="yes"/>
      <point x="292" y="937"/>
      <point x="333" y="946"/>
      <point x="351.0" y="945.5" type="qcurve" smooth="yes" name="inserted"/>
      <point x="369" y="945"/>
      <point x="398" y="933"/>
      <point x="406" y="920" type="qcurve" smooth="yes"/>
    </contour>
    <contour>
      <point x="1055" y="576" type="line" smooth="yes"/>
      <point x="1063.0" y="563.0" name="inserted"/>
      <point x="1063.0" y="537.5"/>
      <point x="1055" y="525" type="qcurve" smooth="yes"/>
      <point x="846" y="181" type="line" smooth="yes"/>
      <point x="838" y="168"/>
      <point x="809" y="156"/>
      <point x="791.0" y="155.5" type="qcurve" smooth="yes" name="inserted"/>
      <point x="773" y="155"/>
      <point x="732" y="164"/>
      <point x="713" y="173" type="qcurve" smooth="yes"/>
      <point x="693" y="182"/>
      <point x="657" y="207"/>
      <point x="646.0" y="221.5" type="qcurve" smooth="yes" name="inserted"/>
      <point x="635" y="236"/>
      <point x="629" y="266"/>
      <point x="638" y="281" type="qcurve" smooth="yes"/>
      <point x="802" y="551" type="line"/>
      <point x="638" y="820" type="line" smooth="yes"/>
      <point x="629" y="835"/>
      <point x="635" y="865"/>
      <point x="646.0" y="879.5" type="qcurve" smooth="yes" name="inserted"/>
      <point x="657" y="894"/>
      <point x="693" y="919"/>
      <point x="713" y="928" type="qcurve" smooth="yes"/>
      <point x="732" y="937"/>
      <point x="773" y="946"/>
      <point x="791.0" y="945.5" type="qcurve" smooth="yes" name="inserted"/>
      <point x="809" y="945"/>
      <point x="838" y="933"/>
      <point x="846" y="920" type="qcurve" smooth="yes"/>
    </contour>
  </outline>
</glyph>
<glyph name="questiondown" format="2">
  <advance width="1228"/>
  <unicode hex="00BF"/>
  <outline>
    <contour>
      <point x="543" y="720" type="line" smooth="yes"/>
      <point x="544" y="732"/>
      <point x="554" y="750"/>
      <point x="565.5" y="756.0" type="qcurve" smooth="yes" name="inserted"/>
      <point x="577" y="762"/>
      <point x="615" y="768"/>
      <point x="644" y="768" type="qcurve" smooth="yes"/>
      <point x="673" y="768"/>
      <point x="711" y="762"/>
      <point x="722.5" y="756.0" type="qcurve" smooth="yes" name="inserted"/>
      <point x="734" y="750"/>
      <point x="744" y="732"/>
      <point x="745" y="720" type="qcurve" smooth="yes"/>
      <point x="763" y="512" type="line" smooth="yes"/>
      <point x="765" y="492"/>
      <point x="752" y="464"/>
      <point x="733" y="461" type="qcurve" smooth="yes"/>
      <point x="623" y="443" type="line" smooth="yes"/>
      <point x="549" y="431"/>
      <point x="481" y="372"/>
      <point x="481" y="318" type="qcurve" smooth="yes"/>
      <point x="481" y="258"/>
      <point x="559" y="195"/>
      <point x="637" y="195" type="qcurve" smooth="yes"/>
      <point x="678" y="195"/>
      <point x="755" y="211"/>
      <point x="790" y="225" type="qcurve"/>
      <point x="790" y="327" type="line" smooth="yes"/>
      <point x="790" y="344"/>
      <point x="800" y="368"/>
      <point x="812.0" y="375.5" type="qcurve" smooth="yes" name="inserted"/>
      <point x="824" y="383"/>
      <point x="866" y="390"/>
      <point x="898" y="390" type="qcurve" smooth="yes"/>
      <point x="962" y="390"/>
      <point x="1020" y="361"/>
      <point x="1020" y="327" type="qcurve" smooth="yes"/>
      <point x="1020" y="127" type="line" smooth="yes"/>
      <point x="1020.0" y="106.5" name="inserted"/>
      <point x="999.5" y="76.0"/>
      <point x="979" y="66" type="qcurve" smooth="yes"/>
      <point x="896" y="27"/>
      <point x="723" y="-22"/>
      <point x="638" y="-22" type="qcurve" smooth="yes"/>
      <point x="537" y="-22"/>
      <point x="384" y="24"/>
      <point x="332.0" y="67.5" type="qcurve" smooth="yes" name="inserted"/>
      <point x="280" y="111"/>
      <point x="227" y="235"/>
      <point x="227" y="313" type="qcurve" smooth="yes"/>
      <point x="227" y="382"/>
      <point x="266" y="484"/>
      <point x="304.0" y="522.0" type="qcurve" smooth="yes" name="inserted"/>
      <point x="342" y="560"/>
      <point x="457" y="614"/>
      <point x="534" y="634" type="qcurve"/>
    </contour>
    <contour>
      <point x="815" y="1038" type="qcurve" smooth="yes"/>
      <point x="815" y="1002"/>
      <point x="788" y="940"/>
      <point x="764.5" y="916.5" type="qcurve" smooth="yes" name="inserted"/>
      <point x="741" y="893"/>
      <point x="679" y="866"/>
      <point x="644" y="866" type="qcurve" smooth="yes"/>
      <point x="608" y="866"/>
      <point x="546" y="893"/>
      <point x="523.0" y="916.5" type="qcurve" smooth="yes" name="inserted"/>
      <point x="500" y="940"/>
      <point x="473" y="1002"/>
      <point x="473" y="1038" type="qcurve" smooth="yes"/>
      <point x="473" y="1073"/>
      <point x="500" y="1135"/>
      <point x="523.0" y="1158.5" type="qcurve" smooth="yes" name="inserted"/>
      <point x="546" y="1182"/>
      <point x="608" y="1209"/>
      <point x="644" y="1209" type="qcurve" smooth="yes"/>
      <point x="680" y="1209"/>
      <point x="742" y="1182"/>
      <point x="765.0" y="1158.5" type="qcurve" smooth="yes" name="inserted"/>
      <point x="788" y="1135"/>
      <point x="815" y="1073"/>
    </contour>
  </outline>
</glyph>
<glyph name="AE" format="2">
  <advance width="1228"/>
  <unicode hex="00C6"/>
  <outline>
    <contour>
      <point x="285" y="982" type="line"/>
      <point x="183" y="982" type="line" smooth="yes"/>
      <point x="166" y="982"/>
      <point x="142" y="990"/>
      <point x="134.5" y="1001.0" type="qcurve" smooth="yes" name="inserted"/>
      <point x="127" y="1012"/>
      <point x="120" y="1052"/>
      <point x="120" y="1084" type="qcurve" smooth="yes"/>
      <point x="120" y="1116"/>
      <point x="127" y="1156"/>
      <point x="134.5" y="1167.5" type="qcurve" smooth="yes" name="inserted"/>
      <point x="142" y="1179"/>
      <point x="166" y="1187"/>
      <point x="183" y="1187" type="qcurve" smooth="yes"/>
      <point x="1095" y="1187" type="line" smooth="yes"/>
      <point x="1130" y="1187"/>
      <point x="1160" y="1157"/>
      <point x="1160" y="1122" type="qcurve" smooth="yes"/>
      <point x="1160" y="850" type="line" smooth="yes"/>
      <point x="1160" y="816"/>
      <point x="1108" y="787"/>
      <point x="1048" y="787" type="qcurve" smooth="yes"/>
      <point x="1018" y="787"/>
      <point x="980" y="794"/>
      <point x="969.0" y="801.5" type="qcurve" smooth="yes" name="inserted"/>
      <point x="958" y="809"/>
      <point x="950" y="833"/>
      <point x="950" y="850" type="qcurve" smooth="yes"/>
      <point x="950" y="982" type="line"/>
      <point x="780" y="982" type="line"/>
      <point x="780" y="729" type="line"/>
      <point x="894" y="729" type="line" smooth="yes"/>
      <point x="911" y="729"/>
      <point x="935" y="719"/>
      <point x="942.5" y="707.0" type="qcurve" smooth="yes" name="inserted"/>
      <point x="950" y="695"/>
      <point x="957" y="653"/>
      <point x="957" y="621" type="qcurve" smooth="yes"/>
      <point x="957" y="589"/>
      <point x="950" y="548"/>
      <point x="942.5" y="536.0" type="qcurve" smooth="yes" name="inserted"/>
      <point x="935" y="524"/>
      <point x="911" y="514"/>
      <point x="894" y="514" type="qcurve" smooth="yes"/>
      <point x="780" y="514" type="line"/>
      <point x="780" y="205" type="line"/>
      <point x="960" y="205" type="line"/>
      <point x="960" y="387" type="line" smooth="yes"/>
      <point x="960" y="421"/>
      <point x="1012" y="450"/>
      <point x="1076" y="450" type="qcurve" smooth="yes"/>
      <point x="1108" y="450"/>
      <point x="1148" y="443"/>
      <point x="1159.5" y="435.5" type="qcurve" smooth="yes" name="inserted"/>
      <point x="1171" y="428"/>
      <point x="1180" y="404"/>
      <point x="1180" y="387" type="qcurve" smooth="yes"/>
      <point x="1180" y="65" type="line" smooth="yes"/>
      <point x="1180" y="30"/>
      <point x="1150" y="0"/>
      <point x="1115" y="0" type="qcurve" smooth="yes"/>
      <point x="615" y="0" type="line" smooth="yes"/>
      <point x="580" y="0"/>
      <point x="550" y="30"/>
      <point x="550" y="65" type="qcurve" smooth="yes"/>
      <point x="550" y="330" type="line"/>
      <point x="348" y="330" type="line"/>
      <point x="316" y="205" type="line"/>
      <point x="357" y="205" type="line" smooth="yes"/>
      <point x="374" y="205"/>
      <point x="398" y="197"/>
      <point x="405.5" y="185.5" type="qcurve" smooth="yes" name="inserted"/>
      <point x="413" y="174"/>
      <point x="420" y="134"/>
      <point x="420" y="102" type="qcurve" smooth="yes"/>
      <point x="420" y="70"/>
      <point x="413" y="30"/>
      <point x="405.5" y="19.0" type="qcurve" smooth="yes" name="inserted"/>
      <point x="398" y="8"/>
      <point x="374" y="0"/>
      <point x="357" y="0" type="qcurve" smooth="yes"/>
      <point x="33" y="0" type="line" smooth="yes"/>
      <point x="16" y="0"/>
      <point x="-8" y="8"/>
      <point x="-15.5" y="19.0" type="qcurve" smooth="yes" name="inserted"/>
      <point x="-23" y="30"/>
      <point x="-30" y="70"/>
      <point x="-30" y="102" type="qcurve" smooth="yes"/>
      <point x="-30" y="134"/>
      <point x="-23" y="174"/>
      <point x="-15.5" y="185.5" type="qcurve" smooth="yes" name="inserted"/>
      <point x="-8" y="197"/>
      <point x="16" y="205"/>
      <point x="33" y="205" type="qcurve" smooth="yes"/>
      <point x="86" y="205" type="line"/>
    </contour>
    <contour>
      <point x="550" y="545" type="line"/>
      <point x="550" y="982" type="line"/>
      <point x="503" y="982" type="line"/>
      <point x="400" y="545" type="line"/>
    </contour>
  </outline>
</glyph>
<glyph name="Oslash" format="2">
  <advance width="1228"/>
  <unicode hex="00D8"/>
  <outline>
    <contour>
      <point x="614" y="1209" type="qcurve" smooth="yes"/>
      <point x="691" y="1209"/>
      <point x="827" y="1176"/>
      <point x="886" y="1144" type="qcurve"/>
      <point x="911" y="1180" type="line" smooth="yes"/>
      <point x="921" y="1194"/>
      <point x="941" y="1209"/>
      <point x="953.5" y="1209.0" type="qcurve" smooth="yes" name="inserted"/>
      <point x="966" y="1209"/>
      <point x="1000" y="1194"/>
      <point x="1023" y="1178" type="qcurve" smooth="yes"/>
      <point x="1069" y="1146"/>
      <point x="1083" y="1101"/>
      <point x="1063" y="1073" type="qcurve" smooth="yes"/>
      <point x="1029" y="1025" type="line"/>
      <point x="1095" y="945"/>
      <point x="1165" y="729"/>
      <point x="1165" y="594" type="qcurve" smooth="yes"/>
      <point x="1165" y="451"/>
      <point x="1086" y="223"/>
      <point x="1013.5" y="143.5" type="qcurve" smooth="yes" name="inserted"/>
      <point x="941" y="64"/>
      <point x="738" y="-22"/>
      <point x="614" y="-22" type="qcurve" smooth="yes"/>
      <point x="538.0" y="-22.0" name="inserted"/>
      <point x="402.5" y="10.0"/>
      <point x="343" y="42" type="qcurve"/>
      <point x="318" y="7" type="line" smooth="yes"/>
      <point x="308" y="-7"/>
      <point x="288" y="-22"/>
      <point x="275.0" y="-22.0" type="qcurve" smooth="yes" name="inserted"/>
      <point x="262" y="-22"/>
      <point x="229" y="-7"/>
      <point x="206" y="9" type="qcurve" smooth="yes"/>
      <point x="183" y="25"/>
      <point x="157" y="52"/>
      <point x="152.5" y="64.0" type="qcurve" smooth="yes" name="inserted"/>
      <point x="148" y="76"/>
      <point x="155" y="100"/>
      <point x="165" y="114" type="qcurve" smooth="yes"/>
      <point x="198" y="162" type="line"/>
      <point x="133" y="241"/>
      <point x="63" y="458"/>
      <point x="63" y="594" type="qcurve" smooth="yes"/>
      <point x="63" y="736"/>
      <point x="142" y="964"/>
      <point x="214.5" y="1044.0" type="qcurve" smooth="yes" name="inserted"/>
      <point x="287" y="1124"/>
      <point x="490" y="1209"/>
    </contour>
    <contour>
      <point x="614" y="982" type="qcurve" smooth="yes"/>
      <point x="473" y="982"/>
      <point x="331" y="781"/>
      <point x="331" y="594" type="qcurve" smooth="yes"/>
      <point x="331.0" y="534.5" name="inserted"/>
      <point x="345.0" y="433.5"/>
      <point x="359" y="392" type="qcurve"/>
      <point x="750" y="949" type="line"/>
      <point x="721.5" y="965.5" name="inserted"/>
      <point x="653.5" y="982.0"/>
    </contour>
    <contour>
      <point x="897" y="594" type="qcurve" smooth="yes"/>
      <point x="897.0" y="652.0" name="inserted"/>
      <point x="882.5" y="752.5"/>
      <point x="868" y="795" type="qcurve"/>
      <point x="479" y="237" type="line"/>
      <point x="508.0" y="221.0" name="inserted"/>
      <point x="575.5" y="205.0"/>
      <point x="614" y="205" type="qcurve" smooth="yes"/>
      <point x="755" y="205"/>
      <point x="897" y="407"/>
    </contour>
  </outline>
</glyph>
<glyph name="germandbls" format="2">
  <advance width="1228"/>
  <unicode hex="00DF"/>
  <outline>
    <contour>
      <point x="208" y="877" type="line" smooth="yes"/>
      <point x="208" y="977"/>
      <point x="263" y="1140"/>
      <point x="316.0" y="1197.5" type="qcurve" smooth="yes" name="inserted"/>
      <point x="369" y="1255"/>
      <point x="524" y="1317"/>
      <point x="623" y="1317" type="qcurve" smooth="yes"/>
      <point x="722" y="1317"/>
      <point x="874" y="1262"/>
      <point x="926.0" y="1213.0" type="qcurve" smooth="yes" name="inserted"/>
      <point x="978" y="1164"/>
      <point x="1031" y="1027"/>
      <point x="1031" y="946" type="qcurve" smooth="yes"/>
      <point x="1031" y="851"/>
      <point x="954" y="721"/>
      <point x="875" y="678" type="qcurve"/>
      <point x="978" y="640"/>
      <point x="1090" y="482"/>
      <point x="1090" y="367" type="qcurve" smooth="yes"/>
      <point x="1090" y="269"/>
      <point x="1026" y="124"/>
      <point x="968.5" y="75.0" type="qcurve" smooth="yes" name="inserted"/>
      <point x="911" y="26"/>
      <point x="748" y="-22"/>
      <point x="649" y="-22" type="qcurve" smooth="yes"/>
      <point x="611" y="-22"/>
      <point x="572" y="27"/>
      <point x="572" y="91" type="qcurve" smooth="yes"/>
      <point x="572" y="155"/>
      <point x="595" y="205"/>
      <point x="629" y="205" type="qcurve" smooth="yes"/>
      <point x="725.5" y="205.0" name="inserted"/>
      <point x="822.0" y="296.0"/>
      <point x="822" y="387" type="qcurve" smooth="yes"/>
      <point x="822" y="465"/>
      <point x="727" y="549"/>
      <point x="642" y="549" type="qcurve" smooth="yes"/>
      <point x="608" y="549"/>
      <point x="579" y="597"/>
      <point x="579" y="661" type="qcurve" smooth="yes"/>
      <point x="579" y="693"/>
      <point x="586" y="735"/>
      <point x="593.5" y="748.0" type="qcurve" smooth="yes" name="inserted"/>
      <point x="601" y="761"/>
      <point x="625" y="772"/>
      <point x="642" y="774" type="qcurve" smooth="yes"/>
      <point x="712.5" y="781.0" name="inserted"/>
      <point x="783.0" y="862.0"/>
      <point x="783" y="936" type="qcurve" smooth="yes"/>
      <point x="783" y="969"/>
      <point x="765" y="1025"/>
      <point x="745.5" y="1045.5" type="qcurve" smooth="yes" name="inserted"/>
      <point x="726" y="1066"/>
      <point x="667" y="1090"/>
      <point x="625" y="1090" type="qcurve" smooth="yes"/>
      <point x="544" y="1090"/>
      <point x="458" y="980"/>
      <point x="458" y="874" type="qcurve" smooth="yes"/>
      <point x="458" y="63" type="line" smooth="yes"/>
      <point x="458" y="29"/>
      <point x="429" y="0"/>
      <point x="395" y="0" type="qcurve" smooth="yes"/>
      <point x="85" y="0" type="line" smooth="yes"/>
      <point x="68" y="0"/>
      <point x="44" y="8"/>
      <point x="36.5" y="19.0" type="qcurve" smooth="yes" name="inserted"/>
      <point x="29" y="30"/>
      <point x="22" y="70"/>
      <point x="22" y="102" type="qcurve" smooth="yes"/>
      <point x="22" y="134"/>
      <point x="29" y="174"/>
      <point x="36.5" y="185.5" type="qcurve" smooth="yes" name="inserted"/>
      <point x="44" y="197"/>
      <point x="68" y="205"/>
      <point x="85" y="205" type="qcurve" smooth="yes"/>
      <point x="208" y="205" type="line"/>
    </contour>
  </outline>
</glyph>
<glyph name="eth" format="2">
  <advance width="1228"/>
  <unicode hex="00F0"/>
  <outline>
    <contour>
      <point x="445" y="1101" type="line"/>
      <point x="428" y="1111"/>
      <point x="395" y="1129"/>
      <point x="378" y="1137" type="qcurve" smooth="yes"/>
      <point x="346" y="1153"/>
      <point x="347" y="1217"/>
      <point x="385" y="1277" type="qcurve" smooth="yes"/>
      <point x="403" y="1305"/>
      <point x="435" y="1338"/>
      <point x="450.0" y="1344.5" type="qcurve" smooth="yes" name="inserted"/>
      <point x="465" y="1351"/>
      <point x="494" y="1348"/>
      <point x="510" y="1340" type="qcurve" smooth="yes"/>
      <point x="558.5" y="1315.0" name="inserted"/>
      <point x="648.5" y="1261.0"/>
      <point x="690" y="1232" type="qcurve"/>
      <point x="841" y="1312" type="line" smooth="yes"/>
      <point x="871" y="1328"/>
      <point x="914" y="1308"/>
      <point x="940" y="1259" type="qcurve" smooth="yes"/>
      <point x="953" y="1234"/>
      <point x="964" y="1199"/>
      <point x="962.0" y="1186.5" type="qcurve" smooth="yes" name="inserted"/>
      <point x="960" y="1174"/>
      <point x="943" y="1156"/>
      <point x="928" y="1148" type="qcurve" smooth="yes"/>
      <point x="843" y="1103" type="line"/>
      <point x="974" y="969"/>
      <point x="1106" y="648"/>
      <point x="1106" y="462" type="qcurve" smooth="yes"/>
      <point x="1106" y="349"/>
      <point x="1036" y="170"/>
      <point x="972.0" y="107.5" type="qcurve" smooth="yes" name="inserted"/>
      <point x="908" y="45"/>
      <point x="726" y="-22"/>
      <point x="614" y="-22" type="qcurve" smooth="yes"/>
      <point x="502" y="-22"/>
      <point x="320" y="44"/>
      <point x="256.0" y="102.5" type="qcurve" smooth="yes" name="inserted"/>
      <point x="192" y="161"/>
      <point x="122" y="324"/>
      <point x="122" y="422" type="qcurve" smooth="yes"/>
      <point x="122" y="519"/>
      <point x="188" y="683"/>
      <point x="248.5" y="741.5" type="qcurve" smooth="yes" name="inserted"/>
      <point x="309" y="800"/>
      <point x="479" y="866"/>
      <point x="584" y="866" type="qcurve" smooth="yes"/>
      <point x="638" y="866"/>
      <point x="732" y="841"/>
      <point x="774" y="816" type="qcurve"/>
      <point x="741" y="865"/>
      <point x="664" y="948"/>
      <point x="620" y="984" type="qcurve"/>
      <point x="467" y="903" type="line" smooth="yes"/>
      <point x="452" y="895"/>
      <point x="427" y="891"/>
      <point x="415.5" y="896.5" type="qcurve" smooth="yes" name="inserted"/>
      <point x="404" y="902"/>
      <point x="381" y="930"/>
      <point x="368" y="955" type="qcurve" smooth="yes"/>
      <point x="355" y="980"/>
      <point x="344" y="1015"/>
      <point x="346.0" y="1028.0" type="qcurve" smooth="yes" name="inserted"/>
      <point x="348" y="1041"/>
      <point x="365" y="1059"/>
      <point x="380" y="1067" type="qcurve" smooth="yes"/>
    </contour>
    <contour>
      <point x="614" y="639" type="qcurve" smooth="yes"/>
      <point x="563" y="639"/>
      <point x="481" y="609"/>
      <point x="451.5" y="581.5" type="qcurve" smooth="yes" name="inserted"/>
      <point x="422" y="554"/>
      <point x="390" y="473"/>
      <point x="390" y="422" type="qcurve" smooth="yes"/>
      <point x="390" y="371"/>
      <point x="422" y="290"/>
      <point x="451.5" y="262.5" type="qcurve" smooth="yes" name="inserted"/>
      <point x="481" y="235"/>
      <point x="563" y="205"/>
      <point x="614" y="205" type="qcurve" smooth="yes"/>
      <point x="665" y="205"/>
      <point x="747" y="235"/>
      <point x="776.5" y="262.5" type="qcurve" smooth="yes" name="inserted"/>
      <point x="806" y="290"/>
      <point x="838" y="371"/>
      <point x="838" y="422" type="qcurve" smooth="yes"/>
      <point x="838" y="473"/>
      <point x="806" y="554"/>
      <point x="776.5" y="581.5" type="qcurve" smooth="yes" name="inserted"/>
      <point x="747" y="609"/>
      <point x="665" y="639"/>
    </contour>
  </outline>
</glyph>
<glyph name="aogonek" format="2">
  <advance width="1228"/>
  <unicode hex="0105"/>
  <outline>
    <contour>
      <point x="832" y="106" type="qcurve"/>
      <point x="755" y="46"/>
      <point x="580" y="-22"/>
      <point x="484" y="-22" type="qcurve" smooth="yes"/>
      <point x="398" y="-22"/>
      <point x="263" y="22"/>
      <point x="216.0" y="63.5" type="qcurve" smooth="yes" name="inserted"/>
      <point x="169" y="105"/>
      <point x="120" y="222"/>
      <point x="120" y="295" type="qcurve" smooth="yes"/>
      <point x="120" y="365"/>
      <point x="171" y="475"/>
      <point x="219.5" y="512.5" type="qcurve" smooth="yes" name="inserted"/>
      <point x="268" y="550"/>
      <point x="407" y="589"/>
      <point x="496" y="589" type="qcurve" smooth="yes"/>
      <point x="562.5" y="589.0" name="inserted"/>
      <point x="704.0" y="574.0"/>
      <point x="779" y="559" type="qcurve"/>
      <point x="779" y="588" type="line" smooth="yes"/>
      <point x="779" y="619"/>
      <point x="759" y="668"/>
      <point x="736.5" y="685.0" type="qcurve" smooth="yes" name="inserted"/>
      <point x="714" y="702"/>
      <point x="639" y="719"/>
      <point x="585" y="719" type="qcurve" smooth="yes"/>
      <point x="525" y="719"/>
      <point x="383" y="689"/>
      <point x="314" y="666" type="qcurve" smooth="yes"/>
      <point x="298" y="661"/>
      <point x="270" y="660"/>
      <point x="257.0" y="667.5" type="qcurve" smooth="yes" name="inserted"/>
      <point x="244" y="675"/>
      <point x="220" y="710"/>
      <point x="209" y="740" type="qcurve" smooth="yes"/>
      <point x="187" y="800"/>
      <point x="201" y="864"/>
      <point x="236" y="877" type="qcurve" smooth="yes"/>
      <point x="283" y="894"/>
      <point x="382" y="920"/>
      <point x="430.5" y="928.5" type="qcurve" smooth="yes" name="inserted"/>
      <point x="479" y="937"/>
      <point x="572" y="946"/>
      <point x="613" y="946" type="qcurve" smooth="yes"/>
      <point x="727" y="946"/>
      <point x="886" y="895"/>
      <point x="935.5" y="847.0" type="qcurve" smooth="yes" name="inserted"/>
      <point x="985" y="799"/>
      <point x="1029" y="663"/>
      <point x="1029" y="579" type="qcurve" smooth="yes"/>
      <point x="1029" y="290" type="line" smooth="yes"/>
      <point x="1029" y="250"/>
      <point x="1063" y="205"/>
      <point x="1095" y="205" type="qcurve" smooth="yes"/>
      <point x="1126" y="205" type="line" smooth="yes"/>
      <point x="1143" y="205"/>
      <point x="1167" y="197"/>
      <point x="1174.5" y="185.5" type="qcurve" smooth="yes" name="inserted"/>
      <point x="1182" y="174"/>
      <point x="1189" y="134"/>
      <point x="1189" y="102" type="qcurve" smooth="yes"/>
      <point x="1189" y="70"/>
      <point x="1182" y="30"/>
      <point x="1174.5" y="19.0" type="qcurve" smooth="yes" name="inserted"/>
      <point x="1167" y="8"/>
      <point x="1143" y="0"/>
      <point x="1126" y="0" type="qcurve" smooth="yes"/>
      <point x="1091" y="0" type="line"/>
      <point x="1017" y="-63"/>
      <point x="932" y="-180"/>
      <point x="932" y="-231" type="qcurve" smooth="yes"/>
      <point x="932" y="-266"/>
      <point x="977" y="-298"/>
      <point x="1020" y="-298" type="qcurve" smooth="yes"/>
      <point x="1049" y="-298"/>
      <point x="1108" y="-290"/>
      <point x="1140" y="-285" type="qcurve" smooth="yes"/>
      <point x="1160" y="-282"/>
      <point x="1185" y="-318"/>
      <point x="1188" y="-353" type="qcurve" smooth="yes"/>
      <point x="1191.0" y="-388.5" name="inserted"/>
      <point x="1172.5" y="-431.0"/>
      <point x="1151" y="-438" type="qcurve" smooth="yes"/>
      <point x="1100" y="-454"/>
      <point x="990" y="-472"/>
      <point x="935" y="-472" type="qcurve" smooth="yes"/>
      <point x="817" y="-472"/>
      <point x="689" y="-369"/>
      <point x="689" y="-269" type="qcurve" smooth="yes"/>
      <point x="689" y="-221"/>
      <point x="723" y="-140"/>
      <point x="753.0" y="-104.5" type="qcurve" smooth="yes" name="inserted"/>
      <point x="783" y="-69"/>
      <point x="863" y="-7"/>
      <point x="909" y="22" type="qcurve"/>
      <point x="885" y="35"/>
      <point x="846" y="76"/>
    </contour>
    <contour>
      <point x="779" y="356" type="line"/>
      <point x="709" y="370"/>
      <point x="582" y="383"/>
      <point x="521" y="383" type="qcurve" smooth="yes"/>
      <point x="450" y="383"/>
      <point x="378" y="333"/>
      <point x="378" y="285" type="qcurve" smooth="yes"/>
      <point x="378" y="237"/>
      <point x="449" y="189"/>
      <point x="516" y="189" type="qcurve" smooth="yes"/>
      <point x="588" y="189"/>
      <point x="722" y="246"/>
      <point x="779" y="292" type="qcurve"/>
    </contour>
  </outline>
</glyph>
<glyph name="Iogonek" format="2">
  <advance width="1228"/>
  <unicode hex="012E"/>
  <outline>
    <contour>
      <point x="489" y="982" type="line"/>
      <point x="253" y="982" type="line" smooth="yes"/>
      <point x="236" y="982"/>
      <point x="212" y="990"/>
      <point x="204.5" y="1001.0" type="qcurve" smooth="yes" name="inserted"/>
      <point x="197" y="1012"/>
      <point x="190" y="1052"/>
      <point x="190" y="1084" type="qcurve" smooth="yes"/>
      <point x="190" y="1116"/>
      <point x="197" y="1156"/>
      <point x="204.5" y="1167.5" type="qcurve" smooth="yes" name="inserted"/>
      <point x="212" y="1179"/>
      <point x="236" y="1187"/>
      <point x="253" y="1187" type="qcurve" smooth="yes"/>
      <point x="975" y="1187" type="line" smooth="yes"/>
      <point x="992" y="1187"/>
      <point x="1016" y="1179"/>
      <point x="1023.5" y="1167.5" type="qcurve" smooth="yes" name="inserted"/>
      <point x="1031" y="1156"/>
      <point x="1038" y="1116"/>
      <point x="1038" y="1084" type="qcurve" smooth="yes"/>
      <point x="1038" y="1052"/>
      <point x="1031" y="1012"/>
      <point x="1023.5" y="1001.0" type="qcurve" smooth="yes" name="inserted"/>
      <point x="1016" y="990"/>
      <point x="992" y="982"/>
      <point x="975" y="982" type="qcurve" smooth="yes"/>
      <point x="739" y="982" type="line"/>
      <point x="739" y="205" type="line"/>
      <point x="995" y="205" type="line" smooth="yes"/>
      <point x="1012" y="205"/>
      <point x="1036" y="197"/>
      <point x="1043.5" y="185.5" type="qcurve" smooth="yes" name="inserted"/>
      <point x="1051" y="174"/>
      <point x="1058" y="134"/>
      <point x="1058" y="102" type="qcurve" smooth="yes"/>
      <point x="1058" y="70"/>
      <point x="1051" y="30"/>
      <point x="1043.5" y="19.0" type="qcurve" smooth="yes" name="inserted"/>
      <point x="1036" y="8"/>
      <point x="1012" y="0"/>
      <point x="995" y="0" type="qcurve" smooth="yes"/>
      <point x="721" y="0" type="line"/>
      <point x="647" y="-63"/>
      <point x="562" y="-180"/>
      <point x="562" y="-231" type="qcurve" smooth="yes"/>
      <point x="562" y="-266"/>
      <point x="607" y="-298"/>
      <point x="650" y="-298" type="qcurve" smooth="yes"/>
      <point x="679" y="-298"/>
      <point x="738" y="-290"/>
      <point x="770" y="-285" type="qcurve" smooth="yes"/>
      <point x="790" y="-282"/>
      <point x="815" y="-318"/>
      <point x="818" y="-353" type="qcurve" smooth="yes"/>
      <point x="821.0" y="-388.5" name="inserted"/>
      <point x="802.5" y="-431.0"/>
      <point x="781" y="-438" type="qcurve" smooth="yes"/>
      <point x="730" y="-454"/>
      <point x="620" y="-472"/>
      <point x="565" y="-472" type="qcurve" smooth="yes"/>
      <point x="447" y="-472"/>
      <point x="319" y="-369"/>
      <point x="319" y="-269" type="qcurve" smooth="yes"/>
      <point x="319" y="-226"/>
      <point x="347" y="-151"/>
      <point x="371.5" y="-118.0" type="qcurve" smooth="yes" name="inserted"/>
      <point x="396" y="-85"/>
      <point x="464" y="-27"/>
      <point x="504" y="0" type="qcurve"/>
      <point x="233" y="0" type="line" smooth="yes"/>
      <point x="216" y="0"/>
      <point x="192" y="8"/>
      <point x="184.5" y="19.0" type="qcurve" smooth="yes" name="inserted"/>
      <point x="177" y="30"/>
      <point x="170" y="70"/>
      <point x="170" y="102" type="qcurve" smooth="yes"/>
      <point x="170" y="134"/>
      <point x="177" y="174"/>
      <point x="184.5" y="185.5" type="qcurve" smooth="yes" name="inserted"/>
      <point x="192" y="197"/>
      <point x="216" y="205"/>
      <point x="233" y="205" type="qcurve" smooth="yes"/>
      <point x="489" y="205" type="line"/>
    </contour>
  </outline>
</glyph>
<glyph name="ij" format="2">
  <advance width="1228"/>
  <unicode hex="0133"/>
  <outline>
    <contour>
      <point x="233" y="719" type="line"/>
      <point x="110" y="719" type="line" smooth="yes"/>
      <point x="93" y="719"/>
      <point x="69" y="727"/>
      <point x="61.5" y="738.0" type="qcurve" smooth="yes" name="inserted"/>
      <point x="54" y="749"/>
      <point x="47" y="789"/>
      <point x="47" y="821" type="qcurve" smooth="yes"/>
      <point x="47" y="853"/>
      <point x="54" y="893"/>
      <point x="61.5" y="904.5" type="qcurve" smooth="yes" name="inserted"/>
      <point x="69" y="916"/>
      <point x="93" y="924"/>
      <point x="110" y="924" type="qcurve" smooth="yes"/>
      <point x="420" y="924" type="line" smooth="yes"/>
      <point x="454" y="924"/>
      <point x="483" y="895"/>
      <point x="483" y="861" type="qcurve" smooth="yes"/>
      <point x="483" y="205" type="line"/>
      <point x="624" y="205" type="line" smooth="yes"/>
      <point x="641" y="205"/>
      <point x="665" y="197"/>
      <point x="672.5" y="185.5" type="qcurve" smooth="yes" name="inserted"/>
      <point x="680" y="174"/>
      <point x="687" y="134"/>
      <point x="687" y="102" type="qcurve" smooth="yes"/>
      <point x="687" y="70"/>
      <point x="680" y="30"/>
      <point x="672.5" y="19.0" type="qcurve" smooth="yes" name="inserted"/>
      <point x="665" y="8"/>
      <point x="641" y="0"/>
      <point x="624" y="0" type="qcurve" smooth="yes"/>
      <point x="100" y="0" type="line" smooth="yes"/>
      <point x="83" y="0"/>
      <point x="59" y="8"/>
      <point x="51.5" y="19.0" type="qcurve" smooth="yes" name="inserted"/>
      <point x="44" y="30"/>
      <point x="37" y="70"/>
      <point x="37" y="102" type="qcurve" smooth="yes"/>
      <point x="37" y="134"/>
      <point x="44" y="174"/>
      <point x="51.5" y="185.5" type="qcurve" smooth="yes" name="inserted"/>
      <point x="59" y="197"/>
      <point x="83" y="205"/>
      <point x="100" y="205" type="qcurve" smooth="yes"/>
      <point x="233" y="205" type="line"/>
    </contour>
    <contour>
      <point x="483" y="1156" type="line" smooth="yes"/>
      <point x="483" y="1122"/>
      <point x="431" y="1093"/>
      <point x="360" y="1093" type="qcurve" smooth="yes"/>
      <point x="289" y="1093"/>
      <point x="233" y="1122"/>
      <point x="233" y="1156" type="qcurve" smooth="yes"/>
      <point x="233" y="1320" type="line" smooth="yes"/>
      <point x="233" y="1337"/>
      <point x="244" y="1361"/>
      <point x="258.0" y="1368.5" type="qcurve" smooth="yes" name="inserted"/>
      <point x="272" y="1376"/>
      <point x="319" y="1383"/>
      <point x="355" y="1383" type="qcurve" smooth="yes"/>
      <point x="426" y="1383"/>
      <point x="483" y="1354"/>
      <point x="483" y="1320" type="qcurve" smooth="yes"/>
    </contour>
    <contour>
      <point x="690" y="719" type="line" smooth="yes"/>
      <point x="673" y="719"/>
      <point x="649" y="727"/>
      <point x="641.5" y="738.0" type="qcurve" smooth="yes" name="inserted"/>
      <point x="634" y="749"/>
      <point x="627" y="789"/>
      <point x="627" y="821" type="qcurve" smooth="yes"/>
      <point x="627" y="853"/>
      <point x="634" y="893"/>
      <point x="641.5" y="904.5" type="qcurve" smooth="yes" name="inserted"/>
      <point x="649" y="916"/>
      <point x="673" y="924"/>
      <point x="690" y="924" type="qcurve" smooth="yes"/>
      <point x="1060" y="924" type="line" smooth="yes"/>
      <point x="1094" y="924"/>
      <point x="1123" y="895"/>
      <point x="1123" y="861" type="qcurve" smooth="yes"/>
      <point x="1123" y="-35" type="line" smooth="yes"/>
      <point x="1123" y="-223"/>
      <point x="941" y="-415"/>
      <point x="766" y="-415" type="qcurve" smooth="yes"/>
      <point x="700" y="-415"/>
      <point x="564" y="-390"/>
      <point x="501" y="-364" type="qcurve" smooth="yes"/>
      <point x="479" y="-355"/>
      <point x="452" y="-324"/>
      <point x="452" y="-295" type="qcurve" smooth="yes"/>
      <point x="452" y="-272"/>
      <point x="463" y="-220"/>
      <point x="472.5" y="-198.5" type="qcurve" smooth="yes" name="inserted"/>
      <point x="482" y="-177"/>
      <point x="510" y="-148"/>
      <point x="528" y="-148" type="qcurve" smooth="yes"/>
      <point x="534.0" y="-148.0" name="inserted"/>
      <point x="550.0" y="-151.0"/>
      <point x="560" y="-154" type="qcurve" smooth="yes"/>
      <point x="609" y="-170"/>
      <point x="705" y="-188"/>
      <point x="744" y="-188" type="qcurve" smooth="yes"/>
      <point x="806" y="-188"/>
      <point x="873" y="-109"/>
      <point x="873" y="-22" type="qcurve" smooth="yes"/>
      <point x="873" y="719" type="line"/>
    </contour>
    <contour>
      <point x="1123" y="1156" type="line" smooth="yes"/>
      <point x="1123" y="1122"/>
      <point x="1071" y="1093"/>
      <point x="1000" y="1093" type="qcurve" smooth="yes"/>
      <point x="929" y="1093"/>
      <point x="873" y="1122"/>
      <point x="873" y="1156" type="qcurve" smooth="yes"/>
      <point x="873" y="1320" type="line" smooth="yes"/>
      <point x="873" y="1337"/>
      <point x="884" y="1361"/>
      <point x="898.0" y="1368.5" type="qcurve" smooth="yes" name="inserted"/>
      <point x="912" y="1376"/>
      <point x="959" y="1383"/>
      <point x="995" y="1383" type="qcurve" smooth="yes"/>
      <point x="1066" y="1383"/>
      <point x="1123" y="1354"/>
      <point x="1123" y="1320" type="qcurve" smooth="yes"/>
    </contour>
  </outline>
</glyph>
<glyph name="OE" format="2">
  <advance width="1228"/>
  <unicode hex="0152"/>
  <outline>
    <contour>
      <point x="1085" y="1187" type="line" smooth="yes"/>
      <point x="1120" y="1187"/>
      <point x="1150" y="1157"/>
      <point x="1150" y="1122" type="qcurve" smooth="yes"/>
      <point x="1150" y="850" type="line" smooth="yes"/>
      <point x="1150" y="816"/>
      <point x="1098" y="787"/>
      <point x="1038" y="787" type="qcurve" smooth="yes"/>
      <point x="1008" y="787"/>
      <point x="970" y="794"/>
      <point x="959.0" y="801.5" type="qcurve" smooth="yes" name="inserted"/>
      <point x="948" y="809"/>
      <point x="940" y="833"/>
      <point x="940" y="850" type="qcurve" smooth="yes"/>
      <point x="940" y="982" type="line"/>
      <point x="770" y="982" type="line"/>
      <point x="770" y="729" type="line"/>
      <point x="884" y="729" type="line" smooth="yes"/>
      <point x="901" y="729"/>
      <point x="925" y="719"/>
      <point x="932.5" y="707.0" type="qcurve" smooth="yes" name="inserted"/>
      <point x="940" y="695"/>
      <point x="947" y="653"/>
      <point x="947" y="621" type="qcurve" smooth="yes"/>
      <point x="947" y="589"/>
      <point x="940" y="548"/>
      <point x="932.5" y="536.0" type="qcurve" smooth="yes" name="inserted"/>
      <point x="925" y="524"/>
      <point x="901" y="514"/>
      <point x="884" y="514" type="qcurve" smooth="yes"/>
      <point x="770" y="514" type="line"/>
      <point x="770" y="205" type="line"/>
      <point x="950" y="205" type="line"/>
      <point x="950" y="387" type="line" smooth="yes"/>
      <point x="950" y="421"/>
      <point x="1002" y="450"/>
      <point x="1066" y="450" type="qcurve" smooth="yes"/>
      <point x="1098" y="450"/>
      <point x="1138" y="443"/>
      <point x="1149.5" y="435.5" type="qcurve" smooth="yes" name="inserted"/>
      <point x="1161" y="428"/>
      <point x="1170" y="404"/>
      <point x="1170" y="387" type="qcurve" smooth="yes"/>
      <point x="1170" y="65" type="line" smooth="yes"/>
      <point x="1170" y="30"/>
      <point x="1140" y="0"/>
      <point x="1105" y="0" type="qcurve" smooth="yes"/>
      <point x="594" y="0" type="line" smooth="yes"/>
      <point x="470" y="0"/>
      <point x="273" y="79"/>
      <point x="204.5" y="154.5" type="qcurve" smooth="yes" name="inserted"/>
      <point x="136" y="230"/>
      <point x="63" y="451"/>
      <point x="63" y="594" type="qcurve" smooth="yes"/>
      <point x="63" y="736"/>
      <point x="136" y="957"/>
      <point x="204.5" y="1033.0" type="qcurve" smooth="yes" name="inserted"/>
      <point x="273" y="1109"/>
      <point x="470" y="1187"/>
      <point x="594" y="1187" type="qcurve" smooth="yes"/>
    </contour>
    <contour>
      <point x="540" y="972" type="line"/>
      <point x="489" y="968"/>
      <point x="402" y="918"/>
      <point x="370.5" y="871.0" type="qcurve" smooth="yes" name="inserted"/>
      <point x="339" y="824"/>
      <point x="303" y="686"/>
      <point x="303" y="594" type="qcurve" smooth="yes"/>
      <point x="303" y="502"/>
      <point x="339" y="363"/>
      <point x="370.5" y="316.0" type="qcurve" smooth="yes" name="inserted"/>
      <point x="402" y="269"/>
      <point x="489" y="219"/>
      <point x="540" y="215" type="qcurve"/>
    </contour>
  </outline>
</glyph>
<glyph name="tbar" format="2">
  <advance width="1228"/>
  <unicode hex="0167"/>
  <outline>
    <contour>
      <point x="353" y="545" type="line"/>
      <point x="353" y="649" type="line"/>
      <point x="160" y="649" type="line" smooth="yes"/>
      <point x="143" y="649"/>
      <point x="119" y="659"/>
      <point x="111.5" y="671.0" type="qcurve" smooth="yes" name="inserted"/>
      <point x="104" y="683"/>
      <point x="97" y="724"/>
      <point x="97" y="756" type="qcurve" smooth="yes"/>
      <point x="97" y="788"/>
      <point x="104" y="830"/>
      <point x="111.5" y="842.0" type="qcurve" smooth="yes" name="inserted"/>
      <point x="119" y="854"/>
      <point x="143" y="864"/>
      <point x="160" y="864" type="qcurve" smooth="yes"/>
      <point x="353" y="864" type="line"/>
      <point x="353" y="1146" type="line" smooth="yes"/>
      <point x="353" y="1180"/>
      <point x="413" y="1209"/>
      <point x="485" y="1209" type="qcurve" smooth="yes"/>
      <point x="521" y="1209"/>
      <point x="566" y="1202"/>
      <point x="579.5" y="1194.5" type="qcurve" smooth="yes" name="inserted"/>
      <point x="593" y="1187"/>
      <point x="603" y="1163"/>
      <point x="603" y="1146" type="qcurve" smooth="yes"/>
      <point x="603" y="864" type="line"/>
      <point x="974" y="864" type="line" smooth="yes"/>
      <point x="991" y="864"/>
      <point x="1015" y="854"/>
      <point x="1022.5" y="842.0" type="qcurve" smooth="yes" name="inserted"/>
      <point x="1030" y="830"/>
      <point x="1037" y="788"/>
      <point x="1037" y="756" type="qcurve" smooth="yes"/>
      <point x="1037" y="724"/>
      <point x="1030" y="683"/>
      <point x="1022.5" y="671.0" type="qcurve" smooth="yes" name="inserted"/>
      <point x="1015" y="659"/>
      <point x="991" y="649"/>
      <point x="974" y="649" type="qcurve" smooth="yes"/>
      <point x="603" y="649" type="line"/>
      <point x="603" y="545" type="line"/>
      <point x="805" y="545" type="line" smooth="yes"/>
      <point x="822" y="545"/>
      <point x="846" y="537"/>
      <point x="853.5" y="525.5" type="qcurve" smooth="yes" name="inserted"/>
      <point x="861" y="514"/>
      <point x="868" y="474"/>
      <point x="868" y="442" type="qcurve" smooth="yes"/>
      <point x="868" y="410"/>
      <point x="861" y="370"/>
      <point x="853.5" y="359.0" type="qcurve" smooth="yes" name="inserted"/>
      <point x="846" y="348"/>
      <point x="822" y="340"/>
      <point x="805" y="340" type="qcurve" smooth="yes"/>
      <point x="604" y="340" type="line"/>
      <point x="610" y="270"/>
      <point x="676" y="205"/>
      <point x="732" y="205" type="qcurve" smooth="yes"/>
      <point x="757" y="205"/>
      <point x="818" y="218"/>
      <point x="850.0" y="229.0" type="qcurve" smooth="yes" name="inserted"/>
      <point x="882" y="240"/>
      <point x="950" y="268"/>
      <point x="983" y="283" type="qcurve" smooth="yes"/>
      <point x="998" y="290"/>
      <point x="1027" y="293"/>
      <point x="1040.5" y="286.5" type="qcurve" smooth="yes" name="inserted"/>
      <point x="1054" y="280"/>
      <point x="1079" y="247"/>
      <point x="1091" y="217" type="qcurve" smooth="yes"/>
      <point x="1115" y="158"/>
      <point x="1100" y="98"/>
      <point x="1067" y="82" type="qcurve" smooth="yes"/>
      <point x="976" y="36"/>
      <point x="797" y="-22"/>
      <point x="710" y="-22" type="qcurve" smooth="yes"/>
      <point x="539" y="-22"/>
      <point x="358" y="160"/>
      <point x="353" y="340" type="qcurve"/>
      <point x="243" y="340" type="line" smooth="yes"/>
      <point x="226" y="340"/>
      <point x="202" y="348"/>
      <point x="194.5" y="359.0" type="qcurve" smooth="yes" name="inserted"/>
      <point x="187" y="370"/>
      <point x="180" y="410"/>
      <point x="180" y="442" type="qcurve" smooth="yes"/>
      <point x="180" y="474"/>
      <point x="187" y="514"/>
      <point x="194.5" y="525.5" type="qcurve" smooth="yes" name="inserted"/>
      <point x="202" y="537"/>
      <point x="226" y="545"/>
      <point x="243" y="545" type="qcurve" smooth="yes"/>
    </contour>
  </outline>
</glyph>
<glyph name="uogonek" format="2">
  <advance width="1228"/>
  <unicode hex="0173"/>
  <outline>
    <contour>
      <point x="113" y="719" type="line" smooth="yes"/>
      <point x="96" y="719"/>
      <point x="72" y="727"/>
      <point x="64.5" y="738.5" type="qcurve" smooth="yes" name="inserted"/>
      <point x="57" y="750"/>
      <point x="50" y="790"/>
      <point x="50" y="822" type="qcurve" smooth="yes"/>
      <point x="50" y="854"/>
      <point x="57" y="894"/>
      <point x="64.5" y="905.0" type="qcurve" smooth="yes" name="inserted"/>
      <point x="72" y="916"/>
      <point x="96" y="924"/>
      <point x="113" y="924" type="qcurve" smooth="yes"/>
      <point x="377" y="924" type="line" smooth="yes"/>
      <point x="411" y="924"/>
      <point x="440" y="895"/>
      <point x="440" y="861" type="qcurve" smooth="yes"/>
      <point x="440" y="363" type="line" smooth="yes"/>
      <point x="440" y="289"/>
      <point x="491" y="205"/>
      <point x="557" y="205" type="qcurve" smooth="yes"/>
      <point x="602" y="205"/>
      <point x="683" y="262"/>
      <point x="714.0" y="310.0" type="qcurve" smooth="yes" name="inserted"/>
      <point x="745" y="358"/>
      <point x="782" y="485"/>
      <point x="782" y="556" type="qcurve" smooth="yes"/>
      <point x="782" y="719" type="line"/>
      <point x="675" y="719" type="line" smooth="yes"/>
      <point x="658" y="719"/>
      <point x="634" y="727"/>
      <point x="626.5" y="738.5" type="qcurve" smooth="yes" name="inserted"/>
      <point x="619" y="750"/>
      <point x="612" y="790"/>
      <point x="612" y="822" type="qcurve" smooth="yes"/>
      <point x="612" y="854"/>
      <point x="619" y="894"/>
      <point x="626.5" y="905.0" type="qcurve" smooth="yes" name="inserted"/>
      <point x="634" y="916"/>
      <point x="658" y="924"/>
      <point x="675" y="924" type="qcurve" smooth="yes"/>
      <point x="969" y="924" type="line" smooth="yes"/>
      <point x="1003" y="924"/>
      <point x="1032" y="895"/>
      <point x="1032" y="861" type="qcurve" smooth="yes"/>
      <point x="1032" y="205" type="line"/>
      <point x="1109" y="205" type="line" smooth="yes"/>
      <point x="1126" y="205"/>
      <point x="1150" y="197"/>
      <point x="1157.5" y="186.0" type="qcurve" smooth="yes" name="inserted"/>
      <point x="1165" y="175"/>
      <point x="1172" y="135"/>
      <point x="1172" y="103" type="qcurve" smooth="yes"/>
      <point x="1172" y="71"/>
      <point x="1165" y="31"/>
      <point x="1157.5" y="19.5" type="qcurve" smooth="yes" name="inserted"/>
      <point x="1150" y="8"/>
      <point x="1126" y="0"/>
      <point x="1109" y="0" type="qcurve" smooth="yes"/>
      <point x="1085" y="0" type="line"/>
      <point x="1011" y="-63"/>
      <point x="926" y="-180"/>
      <point x="926" y="-231" type="qcurve" smooth="yes"/>
      <point x="926" y="-266"/>
      <point x="971" y="-298"/>
      <point x="1014" y="-298" type="qcurve" smooth="yes"/>
      <point x="1043" y="-298"/>
      <point x="1102" y="-290"/>
      <point x="1134" y="-285" type="qcurve" smooth="yes"/>
      <point x="1154" y="-282"/>
      <point x="1179" y="-318"/>
      <point x="1182" y="-353" type="qcurve" smooth="yes"/>
      <point x="1185.0" y="-388.5" name="inserted"/>
      <point x="1166.5" y="-431.0"/>
      <point x="1145" y="-438" type="qcurve" smooth="yes"/>
      <point x="1094" y="-454"/>
      <point x="984" y="-472"/>
      <point x="929" y="-472" type="qcurve" smooth="yes"/>
      <point x="811" y="-472"/>
      <point x="683" y="-369"/>
      <point x="683" y="-269" type="qcurve" smooth="yes"/>
      <point x="683" y="-226"/>
      <point x="711" y="-151"/>
      <point x="736.0" y="-118.0" type="qcurve" smooth="yes" name="inserted"/>
      <point x="761" y="-85"/>
      <point x="829" y="-27"/>
      <point x="869" y="0" type="qcurve"/>
      <point x="844" y="3"/>
      <point x="822" y="33"/>
      <point x="822" y="63" type="qcurve" smooth="yes"/>
      <point x="822" y="208" type="line"/>
      <point x="752" y="86"/>
      <point x="586" y="-22"/>
      <point x="492" y="-22" type="qcurve" smooth="yes"/>
      <point x="423" y="-22"/>
      <point x="311" y="24"/>
      <point x="272.0" y="66.0" type="qcurve" smooth="yes" name="inserted"/>
      <point x="233" y="108"/>
      <point x="190" y="229"/>
      <point x="190" y="304" type="qcurve" smooth="yes"/>
      <point x="190" y="719" type="line"/>
    </contour>
  </outline>
</glyph>
<glyph name="florin" format="2">
  <advance width="1228"/>
  <unicode hex="0192"/>
  <outline>
    <contour>
      <point x="487" y="864" type="line"/>
      <point x="494" y="937" type="line" smooth="yes"/>
      <point x="511" y="1125"/>
      <point x="710" y="1317"/>
      <point x="885" y="1317" type="qcurve" smooth="yes"/>
      <point x="941" y="1317"/>
      <point x="1054" y="1301"/>
      <point x="1109" y="1284" type="qcurve" smooth="yes"/>
      <point x="1126" y="1279"/>
      <point x="1149" y="1261"/>
      <point x="1155.0" y="1245.5" type="qcurve" smooth="yes" name="inserted"/>
      <point x="1161" y="1230"/>
      <point x="1160" y="1184"/>
      <point x="1153" y="1151" type="qcurve" smooth="yes"/>
      <point x="1146" y="1119"/>
      <point x="1125" y="1082"/>
      <point x="1112.0" y="1073.0" type="qcurve" smooth="yes" name="inserted"/>
      <point x="1099" y="1064"/>
      <point x="1069" y="1063"/>
      <point x="1053" y="1067" type="qcurve" smooth="yes"/>
      <point x="1008" y="1079"/>
      <point x="925" y="1090"/>
      <point x="887" y="1090" type="qcurve" smooth="yes"/>
      <point x="825" y="1090"/>
      <point x="751" y="1011"/>
      <point x="743" y="924" type="qcurve" smooth="yes"/>
      <point x="737" y="864" type="line"/>
      <point x="974" y="864" type="line" smooth="yes"/>
      <point x="991" y="864"/>
      <point x="1015" y="854"/>
      <point x="1022.5" y="842.0" type="qcurve" smooth="yes" name="inserted"/>
      <point x="1030" y="830"/>
      <point x="1037" y="788"/>
      <point x="1037" y="756" type="qcurve" smooth="yes"/>
      <point x="1037" y="724"/>
      <point x="1030" y="683"/>
      <point x="1022.5" y="671.0" type="qcurve" smooth="yes" name="inserted"/>
      <point x="1015" y="659"/>
      <point x="991" y="649"/>
      <point x="974" y="649" type="qcurve" smooth="yes"/>
      <point x="718" y="649" type="line"/>
      <point x="670" y="101" type="line" smooth="yes"/>
      <point x="653" y="-87"/>
      <point x="454" y="-279"/>
      <point x="279" y="-279" type="qcurve" smooth="yes"/>
      <point x="223" y="-279"/>
      <point x="110" y="-263"/>
      <point x="55" y="-246" type="qcurve" smooth="yes"/>
      <point x="38" y="-241"/>
      <point x="15" y="-223"/>
      <point x="9.0" y="-207.5" type="qcurve" smooth="yes" name="inserted"/>
      <point x="3" y="-192"/>
      <point x="3" y="-146"/>
      <point x="11" y="-113" type="qcurve" smooth="yes"/>
      <point x="18" y="-82"/>
      <point x="39" y="-44"/>
      <point x="52.0" y="-35.0" type="qcurve" smooth="yes" name="inserted"/>
      <point x="65" y="-26"/>
      <point x="95" y="-25"/>
      <point x="111" y="-29" type="qcurve" smooth="yes"/>
      <point x="156" y="-41"/>
      <point x="239" y="-52"/>
      <point x="277" y="-52" type="qcurve" smooth="yes"/>
      <point x="339" y="-52"/>
      <point x="413" y="27"/>
      <point x="421" y="114" type="qcurve" smooth="yes"/>
      <point x="468" y="649" type="line"/>
      <point x="270" y="649" type="line" smooth="yes"/>
      <point x="253" y="649"/>
      <point x="229" y="659"/>
      <point x="221.5" y="671.0" type="qcurve" smooth="yes" name="inserted"/>
      <point x="214" y="683"/>
      <point x="207" y="724"/>
      <point x="207" y="756" type="qcurve" smooth="yes"/>
      <point x="207" y="788"/>
      <point x="214" y="830"/>
      <point x="221.5" y="842.0" type="qcurve" smooth="yes" name="inserted"/>
      <point x="229" y="854"/>
      <point x="253" y="864"/>
      <point x="270" y="864" type="qcurve" smooth="yes"/>
    </contour>
  </outline>
</glyph>
<glyph name="circumflex" format="2">
  <advance width="1228"/>
  <unicode hex="02C6"/>
  <outline>
    <contour>
      <point x="335" y="1029" type="line" smooth="yes"/>
      <point x="316" y="1020"/>
      <point x="282" y="1035"/>
      <point x="268" y="1053" type="qcurve" smooth="yes"/>
      <point x="254" y="1072"/>
      <point x="255" y="1111"/>
      <point x="272" y="1127" type="qcurve" smooth="yes"/>
      <point x="559" y="1388" type="line" smooth="yes"/>
      <point x="570" y="1398"/>
      <point x="598" y="1406"/>
      <point x="614" y="1406" type="qcurve" smooth="yes"/>
      <point x="630" y="1406"/>
      <point x="658" y="1398"/>
      <point x="669" y="1388" type="qcurve" smooth="yes"/>
      <point x="956" y="1127" type="line" smooth="yes"/>
      <point x="973" y="1111"/>
      <point x="974" y="1072"/>
      <point x="960" y="1053" type="qcurve" smooth="yes"/>
      <point x="946" y="1035"/>
      <point x="912" y="1020"/>
      <point x="893" y="1029" type="qcurve" smooth="yes"/>
      <point x="614" y="1163" type="line"/>
    </contour>
  </outline>
</glyph>
<glyph name="caron" format="2">
  <advance width="1228"/>
  <unicode hex="02C7"/>
  <outline>
    <contour>
      <point x="893" y="1384" type="line" smooth="yes"/>
      <point x="912" y="1393"/>
      <point x="946" y="1378"/>
      <point x="960" y="1360" type="qcurve" smooth="yes"/>
      <point x="974" y="1341"/>
      <point x="973" y="1302"/>
      <point x="956" y="1286" type="qcurve" smooth="yes"/>
      <point x="669" y="1025" type="line" smooth="yes"/>
      <point x="658" y="1015"/>
      <point x="630" y="1007"/>
      <point x="614" y="1007" type="qcurve" smooth="yes"/>
      <point x="598" y="1007"/>
      <point x="570" y="1015"/>
      <point x="559" y="1025" type="qcurve" smooth="yes"/>
      <point x="272" y="1286" type="line" smooth="yes"/>
      <point x="255" y="1302"/>
      <point x="254" y="1341"/>
      <point x="268" y="1360" type="qcurve" smooth="yes"/>
      <point x="282" y="1378"/>
      <point x="316" y="1393"/>
      <point x="335" y="1384" type="qcurve" smooth="yes"/>
      <point x="614" y="1250" type="line"/>
    </contour>
  </outline>
</glyph>
<glyph name="tilde" format="2">
  <advance width="1228"/>
  <unicode hex="02DC"/>
  <outline>
    <contour>
      <point x="767" y="1250" type="qcurve" smooth="yes"/>
      <point x="794" y="1250"/>
      <point x="857" y="1264"/>
      <point x="889" y="1281" type="qcurve" smooth="yes"/>
      <point x="912" y="1294"/>
      <point x="951" y="1271"/>
      <point x="967" y="1244" type="qcurve"/>
      <point x="981" y="1217"/>
      <point x="983" y="1167"/>
      <point x="963" y="1151" type="qcurve" smooth="yes"/>
      <point x="904" y="1100"/>
      <point x="805" y="1058"/>
      <point x="760" y="1058" type="qcurve" smooth="yes"/>
      <point x="718" y="1058"/>
      <point x="642" y="1081"/>
      <point x="606.0" y="1095.0" type="qcurve" smooth="yes" name="inserted"/>
      <point x="570" y="1109"/>
      <point x="499" y="1132"/>
      <point x="462" y="1132" type="qcurve" smooth="yes"/>
      <point x="433" y="1132"/>
      <point x="370" y="1118"/>
      <point x="338" y="1101" type="qcurve" smooth="yes"/>
      <point x="316" y="1089"/>
      <point x="277" y="1111"/>
      <point x="262" y="1139" type="qcurve" smooth="yes"/>
      <point x="248" y="1165"/>
      <point x="245" y="1215"/>
      <point x="264" y="1231" type="qcurve" smooth="yes"/>
      <point x="324" y="1283"/>
      <point x="424" y="1324"/>
      <point x="469" y="1324" type="qcurve" smooth="yes"/>
      <point x="510" y="1324"/>
      <point x="586" y="1301"/>
      <point x="622.0" y="1287.0" type="qcurve" smooth="yes" name="inserted"/>
      <point x="658" y="1273"/>
      <point x="730" y="1250"/>
    </contour>
  </outline>
</glyph>
<glyph name="quotedblright" format="2">
  <advance width="1228"/>
  <unicode hex="201D"/>
  <outline>
    <contour>
      <point x="360" y="672" type="line" smooth="yes"/>
      <point x="343" y="639"/>
      <point x="296" y="611"/>
      <point x="254" y="611" type="qcurve" smooth="yes"/>
      <point x="204" y="611"/>
      <point x="166" y="650"/>
      <point x="174" y="697" type="qcurve" smooth="yes"/>
      <point x="258" y="1169" type="line" smooth="yes"/>
      <point x="262.0" y="1189.0" name="inserted"/>
      <point x="288.0" y="1209.0"/>
      <point x="310" y="1209" type="qcurve" smooth="yes"/>
      <point x="569" y="1209" type="line" smooth="yes"/>
      <point x="594" y="1209"/>
      <point x="610" y="1172"/>
      <point x="597" y="1146" type="qcurve" smooth="yes"/>
    </contour>
    <contour>
      <point x="840" y="672" type="line" smooth="yes"/>
      <point x="823" y="639"/>
      <point x="776" y="611"/>
      <point x="734" y="611" type="qcurve" smooth="yes"/>
      <point x="684" y="611"/>
      <point x="646" y="650"/>
      <point x="654" y="697" type="qcurve" smooth="yes"/>
      <point x="738" y="1169" type="line" smooth="yes"/>
      <point x="742.0" y="1189.0" name="inserted"/>
      <point x="768.0" y="1209.0"/>
      <point x="790" y="1209" type="qcurve" smooth="yes"/>
      <point x="1049" y="1209" type="line" smooth="yes"/>
      <point x="1074" y="1209"/>
      <point x="1090" y="1172"/>
      <point x="1077" y="1146" type="qcurve" smooth="yes"/>
    </contour>
  </outline>
</glyph>
<glyph name="daggerdbl" format="2">
  <advance width="1228"/>
  <unicode hex="2021"/>
  <outline>
    <contour>
      <point x="313" y="373" type="line" smooth="yes"/>
      <point x="296" y="373"/>
      <point x="272" y="381"/>
      <point x="264.5" y="393.0" type="qcurve" smooth="yes" name="inserted"/>
      <point x="257" y="405"/>
      <point x="250" y="449"/>
      <point x="250" y="485" type="qcurve" smooth="yes"/>
      <point x="250" y="521"/>
      <point x="257" y="565"/>
      <point x="264.5" y="577.0" type="qcurve" smooth="yes" name="inserted"/>
      <point x="272" y="589"/>
      <point x="296" y="598"/>
      <point x="313" y="598" type="qcurve" smooth="yes"/>
      <point x="501" y="598" type="line"/>
      <point x="501" y="779" type="line"/>
      <point x="313" y="779" type="line" smooth="yes"/>
      <point x="296" y="779"/>
      <point x="272" y="787"/>
      <point x="264.5" y="799.0" type="qcurve" smooth="yes" name="inserted"/>
      <point x="257" y="811"/>
      <point x="250" y="855"/>
      <point x="250" y="891" type="qcurve" smooth="yes"/>
      <point x="250" y="927"/>
      <point x="257" y="971"/>
      <point x="264.5" y="983.0" type="qcurve" smooth="yes" name="inserted"/>
      <point x="272" y="995"/>
      <point x="296" y="1004"/>
      <point x="313" y="1004" type="qcurve" smooth="yes"/>
      <point x="501" y="1004" type="line"/>
      <point x="501" y="1146" type="line" smooth="yes"/>
      <point x="501" y="1163"/>
      <point x="510" y="1187"/>
      <point x="522.0" y="1194.5" type="qcurve" smooth="yes" name="inserted"/>
      <point x="534" y="1202"/>
      <point x="578" y="1209"/>
      <point x="614" y="1209" type="qcurve" smooth="yes"/>
      <point x="650" y="1209"/>
      <point x="694" y="1202"/>
      <point x="706.0" y="1194.5" type="qcurve" smooth="yes" name="inserted"/>
      <point x="718" y="1187"/>
      <point x="726" y="1163"/>
      <point x="726" y="1146" type="qcurve" smooth="yes"/>
      <point x="726" y="1004" type="line"/>
      <point x="915" y="1004" type="line" smooth="yes"/>
      <point x="932" y="1004"/>
      <point x="956" y="995"/>
      <point x="963.5" y="983.0" type="qcurve" smooth="yes" name="inserted"/>
      <point x="971" y="971"/>
      <point x="978" y="927"/>
      <point x="978" y="891" type="qcurve" smooth="yes"/>
      <point x="978" y="855"/>
      <point x="971" y="811"/>
      <point x="963.5" y="799.0" type="qcurve" smooth="yes" name="inserted"/>
      <point x="956" y="787"/>
      <point x="932" y="779"/>
      <point x="915" y="779" type="qcurve" smooth="yes"/>
      <point x="726" y="779" type="line"/>
      <point x="726" y="598" type="line"/>
      <point x="915" y="598" type="line" smooth="yes"/>
      <point x="932" y="598"/>
      <point x="956" y="589"/>
      <point x="963.5" y="577.0" type="qcurve" smooth="yes" name="inserted"/>
      <point x="971" y="565"/>
      <point x="978" y="521"/>
      <point x="978" y="485" type="qcurve" smooth="yes"/>
      <point x="978" y="449"/>
      <point x="971" y="405"/>
      <point x="963.5" y="393.0" type="qcurve" smooth="yes" name="inserted"/>
      <point x="956" y="381"/>
      <point x="932" y="373"/>
      <point x="915" y="373" type="qcurve" smooth="yes"/>
      <point x="726" y="373" type="line"/>
      <point x="726" y="231" type="line" smooth="yes"/>
      <point x="726" y="214"/>
      <point x="718" y="190"/>
      <point x="706.0" y="182.5" type="qcurve" smooth="yes" name="inserted"/>
      <point x="694" y="175"/>
      <point x="650" y="168"/>
      <point x="614" y="168" type="qcurve" smooth="yes"/>
      <point x="578" y="168"/>
      <point x="534" y="175"/>
      <point x="522.0" y="182.5" type="qcurve" smooth="yes" name="inserted"/>
      <point x="510" y="190"/>
      <point x="501" y="214"/>
      <point x="501" y="231" type="qcurve" smooth="yes"/>
      <point x="501" y="373" type="line"/>
    </contour>
  </outline>
</glyph>
<glyph name="guilsinglright" format="2">
  <advance width="1228"/>
  <unicode hex="203A"/>
  <outline>
    <contour>
      <point x="835" y="576" type="line" smooth="yes"/>
      <point x="843.0" y="563.0" name="inserted"/>
      <point x="843.0" y="537.5"/>
      <point x="835" y="525" type="qcurve" smooth="yes"/>
      <point x="626" y="181" type="line" smooth="yes"/>
      <point x="618" y="168"/>
      <point x="589" y="156"/>
      <point x="571.0" y="155.5" type="qcurve" smooth="yes" name="inserted"/>
      <point x="553" y="155"/>
      <point x="512" y="164"/>
      <point x="493" y="173" type="qcurve" smooth="yes"/>
      <point x="473" y="182"/>
      <point x="437" y="207"/>
      <point x="426.0" y="221.5" type="qcurve" smooth="yes" name="inserted"/>
      <point x="415" y="236"/>
      <point x="409" y="266"/>
      <point x="418" y="281" type="qcurve" smooth="yes"/>
      <point x="582" y="551" type="line"/>
      <point x="418" y="820" type="line" smooth="yes"/>
      <point x="409" y="835"/>
      <point x="415" y="865"/>
      <point x="426.0" y="879.5" type="qcurve" smooth="yes" name="inserted"/>
      <point x="437" y="894"/>
      <point x="473" y="919"/>
      <point x="493" y="928" type="qcurve" smooth="yes"/>
      <point x="512" y="937"/>
      <point x="553" y="946"/>
      <point x="571.0" y="945.5" type="qcurve" smooth="yes" name="inserted"/>
      <point x="589" y="945"/>
      <point x="618" y="933"/>
      <point x="626" y="920" type="qcurve" smooth="yes"/>
    </contour>
  </outline>
</glyph>
<glyph name="Euro" format="2">
  <advance width="1228"/>
  <unicode hex="20AC"/>
  <outline>
    <contour>
      <point x="1081" y="84" type="qcurve" smooth="yes"/>
      <point x="976" y="32"/>
      <point x="764" y="-22"/>
      <point x="664" y="-22" type="qcurve" smooth="yes"/>
      <point x="488" y="-22"/>
      <point x="255" y="166"/>
      <point x="206" y="337" type="qcurve"/>
      <point x="113" y="337" type="line" smooth="yes"/>
      <point x="96" y="337"/>
      <point x="72" y="345"/>
      <point x="64.5" y="355.0" type="qcurve" smooth="yes" name="inserted"/>
      <point x="57" y="365"/>
      <point x="50" y="401"/>
      <point x="50" y="429" type="qcurve" smooth="yes"/>
      <point x="50" y="485"/>
      <point x="79" y="522"/>
      <point x="113" y="522" type="qcurve" smooth="yes"/>
      <point x="180" y="522" type="line"/>
      <point x="177.0" y="557.0" name="inserted"/>
      <point x="177.0" y="628.5"/>
      <point x="180" y="665" type="qcurve"/>
      <point x="113" y="665" type="line" smooth="yes"/>
      <point x="96" y="665"/>
      <point x="72" y="673"/>
      <point x="64.5" y="683.0" type="qcurve" smooth="yes" name="inserted"/>
      <point x="57" y="693"/>
      <point x="50" y="729"/>
      <point x="50" y="757" type="qcurve" smooth="yes"/>
      <point x="50" y="813"/>
      <point x="79" y="850"/>
      <point x="113" y="850" type="qcurve" smooth="yes"/>
      <point x="205" y="850" type="line"/>
      <point x="229" y="935"/>
      <point x="310" y="1068"/>
      <point x="364.5" y="1114.0" type="qcurve" smooth="yes" name="inserted"/>
      <point x="419" y="1160"/>
      <point x="555" y="1209"/>
      <point x="634" y="1209" type="qcurve" smooth="yes"/>
      <point x="722" y="1209"/>
      <point x="846" y="1142"/>
      <point x="884" y="1084" type="qcurve"/>
      <point x="884" y="1146" type="line" smooth="yes"/>
      <point x="884" y="1180"/>
      <point x="942" y="1209"/>
      <point x="1006" y="1209" type="qcurve" smooth="yes"/>
      <point x="1038" y="1209"/>
      <point x="1080" y="1202"/>
      <point x="1092.0" y="1194.5" type="qcurve" smooth="yes" name="inserted"/>
      <point x="1104" y="1187"/>
      <point x="1114" y="1163"/>
      <point x="1114" y="1146" type="qcurve" smooth="yes"/>
      <point x="1114" y="762" type="line" smooth="yes"/>
      <point x="1114" y="728"/>
      <point x="1054" y="699"/>
      <point x="982" y="699" type="qcurve" smooth="yes"/>
      <point x="946" y="699"/>
      <point x="901" y="706"/>
      <point x="887.5" y="713.5" type="qcurve" smooth="yes" name="inserted"/>
      <point x="874" y="721"/>
      <point x="864" y="745"/>
      <point x="864" y="762" type="qcurve" smooth="yes"/>
      <point x="864" y="810"/>
      <point x="837" y="891"/>
      <point x="811.5" y="920.5" type="qcurve" smooth="yes" name="inserted"/>
      <point x="786" y="950"/>
      <point x="712" y="982"/>
      <point x="664" y="982" type="qcurve" smooth="yes"/>
      <point x="592" y="982"/>
      <point x="501" y="915"/>
      <point x="476" y="850" type="qcurve"/>
      <point x="665" y="850" type="line" smooth="yes"/>
      <point x="699" y="850"/>
      <point x="728" y="813"/>
      <point x="728" y="757" type="qcurve" smooth="yes"/>
      <point x="728" y="729"/>
      <point x="721" y="693"/>
      <point x="713.5" y="683.0" type="qcurve" smooth="yes" name="inserted"/>
      <point x="706" y="673"/>
      <point x="682" y="665"/>
      <point x="665" y="665" type="qcurve" smooth="yes"/>
      <point x="447" y="665" type="line"/>
      <point x="444" y="630"/>
      <point x="444" y="559"/>
      <point x="448" y="522" type="qcurve"/>
      <point x="665" y="522" type="line" smooth="yes"/>
      <point x="699" y="522"/>
      <point x="728" y="485"/>
      <point x="728" y="429" type="qcurve" smooth="yes"/>
      <point x="728" y="401"/>
      <point x="721" y="365"/>
      <point x="713.5" y="355.0" type="qcurve" smooth="yes" name="inserted"/>
      <point x="706" y="345"/>
      <point x="682" y="337"/>
      <point x="665" y="337" type="qcurve" smooth="yes"/>
      <point x="480" y="337" type="line"/>
      <point x="507" y="272"/>
      <point x="602" y="205"/>
      <point x="674" y="205" type="qcurve" smooth="yes"/>
      <point x="759" y="205"/>
      <point x="918" y="256"/>
      <point x="1005" y="300" type="qcurve" smooth="yes"/>
      <point x="1035" y="315"/>
      <point x="1091" y="285"/>
      <point x="1113" y="225" type="qcurve" smooth="yes"/>
      <point x="1135" y="164"/>
      <point x="1113" y="100"/>
    </contour>
  </outline>
</glyph>
<glyph name="Delta" format="2">
  <advance width="1228"/>
  <unicode hex="2206"/>
  <outline>
    <contour>
      <point x="163" y="205" type="line"/>
      <point x="465" y="1144" type="line" smooth="yes"/>
      <point x="476" y="1180"/>
      <point x="547" y="1209"/>
      <point x="617" y="1209" type="qcurve" smooth="yes"/>
      <point x="687" y="1209"/>
      <point x="756" y="1179"/>
      <point x="767" y="1144" type="qcurve" smooth="yes"/>
      <point x="1064" y="205" type="line"/>
      <point x="1145" y="205" type="line" smooth="yes"/>
      <point x="1162" y="205"/>
      <point x="1186" y="197"/>
      <point x="1193.5" y="185.5" type="qcurve" smooth="yes" name="inserted"/>
      <point x="1201" y="174"/>
      <point x="1208" y="134"/>
      <point x="1208" y="102" type="qcurve" smooth="yes"/>
      <point x="1208" y="70"/>
      <point x="1201" y="30"/>
      <point x="1193.5" y="19.0" type="qcurve" smooth="yes" name="inserted"/>
      <point x="1186" y="8"/>
      <point x="1162" y="0"/>
      <point x="1145" y="0" type="qcurve" smooth="yes"/>
      <point x="83" y="0" type="line" smooth="yes"/>
      <point x="66" y="0"/>
      <point x="42" y="8"/>
      <point x="34.5" y="19.0" type="qcurve" smooth="yes" name="inserted"/>
      <point x="27" y="30"/>
      <point x="20" y="70"/>
      <point x="20" y="102" type="qcurve" smooth="yes"/>
      <point x="20" y="134"/>
      <point x="27" y="174"/>
      <point x="34.5" y="185.5" type="qcurve" smooth="yes" name="inserted"/>
      <point x="42" y="197"/>
      <point x="66" y="205"/>
      <point x="83" y="205" type="qcurve" smooth="yes"/>
    </contour>
    <contour>
      <point x="422" y="205" type="line"/>
      <point x="806" y="205" type="line"/>
      <point x="618" y="852" type="line"/>
      <point x="614" y="852" type="line"/>
    </contour>
  </outline>
</glyph>
<glyph name="integral" format="2">
  <advance width="1228"/>
  <unicode hex="222B"/>
  <outline>
    <contour>
      <point x="47" y="-327" type="qcurve" smooth="yes"/>
      <point x="27" y="-316"/>
      <point x="8" y="-288"/>
      <point x="6.0" y="-271.5" type="qcurve" smooth="yes" name="inserted"/>
      <point x="4" y="-255"/>
      <point x="12" y="-218"/>
      <point x="19" y="-199" type="qcurve" smooth="yes"/>
      <point x="27" y="-178"/>
      <point x="48" y="-143"/>
      <point x="62.0" y="-132.0" type="qcurve" smooth="yes" name="inserted"/>
      <point x="76" y="-121"/>
      <point x="110" y="-116"/>
      <point x="131" y="-126" type="qcurve" smooth="yes"/>
      <point x="192" y="-155"/>
      <point x="309" y="-188"/>
      <point x="360" y="-188" type="qcurve" smooth="yes"/>
      <point x="422" y="-188"/>
      <point x="489" y="-109"/>
      <point x="489" y="-22" type="qcurve" smooth="yes"/>
      <point x="489" y="1137" type="line" smooth="yes"/>
      <point x="489" y="1325"/>
      <point x="671" y="1517"/>
      <point x="846" y="1517" type="qcurve" smooth="yes"/>
      <point x="933" y="1517"/>
      <point x="1108" y="1469"/>
      <point x="1181" y="1429" type="qcurve" smooth="yes"/>
      <point x="1201" y="1418"/>
      <point x="1220" y="1390"/>
      <point x="1222.0" y="1373.5" type="qcurve" smooth="yes" name="inserted"/>
      <point x="1224" y="1357"/>
      <point x="1216" y="1320"/>
      <point x="1209" y="1301" type="qcurve" smooth="yes"/>
      <point x="1201" y="1280"/>
      <point x="1180" y="1245"/>
      <point x="1166.0" y="1234.0" type="qcurve" smooth="yes" name="inserted"/>
      <point x="1152" y="1223"/>
      <point x="1118" y="1218"/>
      <point x="1097" y="1228" type="qcurve" smooth="yes"/>
      <point x="1035" y="1257"/>
      <point x="919" y="1290"/>
      <point x="868" y="1290" type="qcurve" smooth="yes"/>
      <point x="806" y="1290"/>
      <point x="739" y="1211"/>
      <point x="739" y="1124" type="qcurve" smooth="yes"/>
      <point x="739" y="-35" type="line" smooth="yes"/>
      <point x="739" y="-223"/>
      <point x="557" y="-415"/>
      <point x="382" y="-415" type="qcurve" smooth="yes"/>
      <point x="295" y="-415"/>
      <point x="119" y="-367"/>
    </contour>
  </outline>
</glyph>
<glyph name="greaterequal" format="2">
  <advance width="1228"/>
  <unicode hex="2265"/>
  <outline>
    <contour>
      <point x="995" y="225" type="line" smooth="yes"/>
      <point x="1012" y="225"/>
      <point x="1036" y="216"/>
      <point x="1043.5" y="204.0" type="qcurve" smooth="yes" name="inserted"/>
      <point x="1051" y="192"/>
      <point x="1058" y="148"/>
      <point x="1058" y="112" type="qcurve" smooth="yes"/>
      <point x="1058" y="76"/>
      <point x="1051" y="32"/>
      <point x="1043.5" y="20.0" type="qcurve" smooth="yes" name="inserted"/>
      <point x="1036" y="8"/>
      <point x="1012" y="0"/>
      <point x="995" y="0" type="qcurve" smooth="yes"/>
      <point x="233" y="0" type="line" smooth="yes"/>
      <point x="216" y="0"/>
      <point x="192" y="8"/>
      <point x="184.5" y="20.0" type="qcurve" smooth="yes" name="inserted"/>
      <point x="177" y="32"/>
      <point x="170" y="76"/>
      <point x="170" y="112" type="qcurve" smooth="yes"/>
      <point x="170" y="148"/>
      <point x="177" y="192"/>
      <point x="184.5" y="204.0" type="qcurve" smooth="yes" name="inserted"/>
      <point x="192" y="216"/>
      <point x="216" y="225"/>
      <point x="233" y="225" type="qcurve" smooth="yes"/>
    </contour>
    <contour>
      <point x="1058" y="745" type="qcurve" smooth="yes"/>
      <point x="1058" y="702"/>
      <point x="1037" y="662"/>
      <point x="1012" y="651" type="qcurve" smooth="yes"/>
      <point x="283" y="351" type="line" smooth="yes"/>
      <point x="251" y="337"/>
      <point x="204" y="375"/>
      <point x="181" y="439" type="qcurve" smooth="yes"/>
      <point x="169" y="470"/>
      <point x="162" y="513"/>
      <point x="165.5" y="527.5" type="qcurve" smooth="yes" name="inserted"/>
      <point x="169" y="542"/>
      <point x="189" y="559"/>
      <point x="205" y="565" type="qcurve" smooth="yes"/>
      <point x="697" y="745" type="line"/>
      <point x="205" y="925" type="line" smooth="yes"/>
      <point x="189" y="931"/>
      <point x="169" y="948"/>
      <point x="165.5" y="962.5" type="qcurve" smooth="yes" name="inserted"/>
      <point x="162" y="977"/>
      <point x="169" y="1019"/>
      <point x="181" y="1051" type="qcurve" smooth="yes"/>
      <point x="204" y="1115"/>
      <point x="251" y="1153"/>
      <point x="283" y="1139" type="qcurve" smooth="yes"/>
      <point x="1012" y="839" type="line" smooth="yes"/>
      <point x="1037" y="828"/>
      <point x="1058" y="788"/>
    </contour>
  </outline>
</glyph>
<glyph name="comma.alt" format="2">
  <advance width="1228"/>
  <outline>
    <contour>
      <point x="820" y="-253" type="line" smooth="yes"/>
      <point x="809" y="-274"/>
      <point x="769" y="-294"/>
      <point x="734" y="-294" type="qcurve" smooth="yes"/>
      <point x="692" y="-294"/>
      <point x="649" y="-260"/>
      <point x="654" y="-228" type="qcurve" smooth="yes"/>
      <point x="748" y="314" type="line" smooth="yes"/>
      <point x="752.0" y="334.0" name="inserted"/>
      <point x="778.0" y="354.0"/>
      <point x="800" y="354" type="qcurve" smooth="yes"/>
      <point x="1059" y="354" type="line" smooth="yes"/>
      <point x="1084" y="354"/>
      <point x="1100" y="317"/>
      <point x="1087" y="291" type="qcurve" smooth="yes"/>
    </contour>
  </outline>
</glyph>
<glyph name="ellipsis.alt2" format="2">
  <advance width="3684"/>
  <outline>
    <contour>
      <point x="734" y="186" type="qcurve" smooth="yes"/>
      <point x="734" y="229"/>
      <point x="767" y="305"/>
      <point x="795.0" y="333.0" type="qcurve" smooth="yes" name="inserted"/>
      <point x="823" y="361"/>
      <point x="899" y="394"/>
      <point x="942" y="394" type="qcurve" smooth="yes"/>
      <point x="985" y="394"/>
      <point x="1061" y="361"/>
      <point x="1089.0" y="333.0" type="qcurve" smooth="yes" name="inserted"/>
      <point x="1117" y="305"/>
      <point x="1150" y="229"/>
      <point x="1150" y="186" type="qcurve" smooth="yes"/>
      <point x="1150" y="143"/>
      <point x="1117" y="67"/>
      <point x="1089.0" y="39.0" type="qcurve" smooth="yes" name="inserted"/>
      <point x="1061" y="11"/>
      <point x="985" y="-22"/>
      <point x="942" y="-22" type="qcurve" smooth="yes"/>
      <point x="899" y="-22"/>
      <point x="823" y="11"/>
      <point x="795.0" y="39.0" type="qcurve" smooth="yes" name="inserted"/>
      <point x="767" y="67"/>
      <point x="734" y="143"/>
    </contour>
    <contour>
      <point x="1634" y="186" type="qcurve" smooth="yes"/>
      <point x="1634" y="229"/>
      <point x="1667" y="305"/>
      <point x="1695.0" y="333.0" type="qcurve" smooth="yes" name="inserted"/>
      <point x="1723" y="361"/>
      <point x="1799" y="394"/>
      <point x="1842" y="394" type="qcurve" smooth="yes"/>
      <point x="1885" y="394"/>
      <point x="1961" y="361"/>
      <point x="1989.0" y="333.0" type="qcurve" smooth="yes" name="inserted"/>
      <point x="2017" y="305"/>
      <point x="2050" y="229"/>
      <point x="2050" y="186" type="qcurve" smooth="yes"/>
      <point x="2050" y="143"/>
      <point x="2017" y="67"/>
      <point x="1989.0" y="39.0" type="qcurve" smooth="yes" name="inserted"/>
      <point x="1961" y="11"/>
      <point x="1885" y="-22"/>
      <point x="1842" y="-22" type="qcurve" smooth="yes"/>
      <point x="1799" y="-22"/>
      <point x="1723" y="11"/>
      <point x="1695.0" y="39.0" type="qcurve" smooth="yes" name="inserted"/>
      <point x="1667" y="67"/>
      <point x="1634" y="143"/>
    </contour>
    <contour>
      <point x="2534" y="186" type="qcurve" smooth="yes"/>
      <point x="2534" y="229"/>
      <point x="2567" y="305"/>
      <point x="2595.0" y="333.0" type="qcurve" smooth="yes" name="inserted"/>
      <point x="2623" y="361"/>
      <point x="2699" y="394"/>
      <point x="2742" y="394" type="qcurve" smooth="yes"/>
      <point x="2785" y="394"/>
      <point x="2861" y="361"/>
      <point x="2889.0" y="333.0" type="qcurve" smooth="yes" name="inserted"/>
      <point x="2917" y="305"/>
      <point x="2950" y="229"/>
      <point x="2950" y="186" type="qcurve" smooth="yes"/>
      <point x="2950" y="143"/>
      <point x="2917" y="67"/>
      <point x="2889.0" y="39.0" type="qcurve" smooth="yes" name="inserted"/>
      <point x="2861" y="11"/>
      <point x="2785" y="-22"/>
      <point x="2742" y="-22" type="qcurve" smooth="yes"/>
      <point x="2699" y="-22"/>
      <point x="2623" y="11"/>
      <point x="2595.0" y="39.0" type="qcurve" smooth="yes" name="inserted"/>
      <point x="2567" y="67"/>
      <point x="2534" y="143"/>
    </contour>
  </outline>
</glyph>
<glyph name="emdash.alt3" format="2">
  <advance width="2456"/>
  <outline>
    <contour>
      <point x="2109" y="695" type="line" smooth="yes"/>
      <point x="2126" y="695"/>
      <point x="2150" y="686"/>
      <point x="2157.5" y="674.0" type="qcurve" smooth="yes" name="inserted"/>
      <point x="2165" y="662"/>
      <point x="2172" y="618"/>
      <point x="2172" y="582" type="qcurve" smooth="yes"/>
      <point x="2172" y="546"/>
      <point x="2165" y="502"/>
      <point x="2157.5" y="490.0" type="qcurve" smooth="yes" name="inserted"/>
      <point x="2150" y="478"/>
      <point x="2126" y="470"/>
      <point x="2109" y="470" type="qcurve" smooth="yes"/>
      <point x="347" y="470" type="line" smooth="yes"/>
      <point x="330" y="470"/>
      <point x="306" y="478"/>
      <point x="298.5" y="490.0" type="qcurve" smooth="yes" name="inserted"/>
      <point x="291" y="502"/>
      <point x="284" y="546"/>
      <point x="284" y="582" type="qcurve" smooth="yes"/>
      <point x="284" y="618"/>
      <point x="291" y="662"/>
      <point x="298.5" y="674.0" type="qcurve" smooth="yes" name="inserted"/>
      <point x="306" y="686"/>
      <point x="330" y="695"/>
      <point x="347" y="695" type="qcurve" smooth="yes"/>
    </contour>
  </outline>
</glyph>
